<svg version="1.1" viewBox="0.0 0.0 1024.0 900.0" fill="none" stroke="none" stroke-linecap="square" stroke-miterlimit="10" xmlns:xlink="http://www.w3.org/1999/xlink" xmlns="http://www.w3.org/2000/svg"><clipPath id="g3d59dfe0239_0_116.0"><path d="m0 0l1024.0 0l0 900.0l-1024.0 0l0 -900.0z" clip-rule="nonzero"/></clipPath><g clip-path="url(#g3d59dfe0239_0_116.0)"><path fill="#000000" fill-opacity="0.0" d="m0 0l1024.0 0l0 900.0l-1024.0 0z" fill-rule="evenodd"/><path fill="#58cf78" d="m74.297844 800.1057l-74.29921 -36.511353l0 -110.977295l74.29921 -36.511353z" fill-rule="evenodd"/><path stroke="#58cf78" stroke-width="4.989501312335958" stroke-miterlimit="8.0" stroke-linecap="butt" d="m74.297844 800.1057l-74.29921 -36.511353l0 -110.977295l74.29921 -36.511353z" fill-rule="evenodd"/><path fill="#58cf78" d="m143.06383 869.07904l-62.91931 -101.4173l-78.02557 0l62.919304 101.4173z" fill-rule="evenodd"/><path stroke="#58cf78" stroke-width="4.989501312335958" stroke-miterlimit="8.0" stroke-linecap="butt" d="m143.06383 869.07904l-62.91931 -101.4173l-78.02557 0l62.919304 101.4173z" fill-rule="evenodd"/><path fill="#58cf78" d="m949.6994 800.1057l74.299255 -36.511353l0 -110.977295l-74.299255 -36.511353z" fill-rule="evenodd"/><path stroke="#58cf78" stroke-width="4.989501312335958" stroke-miterlimit="8.0" stroke-linecap="butt" d="m949.6994 800.1057l74.299255 -36.511353l0 -110.977295l-74.299255 -36.511353z" fill-rule="evenodd"/><path fill="#88e396" d="m79.33063 508.96292l865.8583 0l0 288.47244l-865.8583 0z" fill-rule="evenodd"/><path stroke="#88e396" stroke-width="4.989501312335958" stroke-miterlimit="8.0" stroke-linecap="butt" d="m79.33063 508.96292l865.8583 0l0 288.47244l-865.8583 0z" fill-rule="evenodd"/><path fill="#88e396" d="m79.43167 113.20609l865.2914 0l0 264.0l-865.2914 0z" fill-rule="evenodd"/><path stroke="#88e396" stroke-width="4.989501312335958" stroke-miterlimit="8.0" stroke-linecap="butt" d="m79.43167 113.20609l865.2914 0l0 264.0l-865.2914 0z" fill-rule="evenodd"/><path fill="#88e396" d="m80.35345 109.5517l42.173378 -101.41732l215.52725 0l42.17337 101.41732z" fill-rule="evenodd"/><path stroke="#88e396" stroke-width="4.989501312335958" stroke-miterlimit="8.0" stroke-linecap="butt" d="m80.35345 109.5517l42.173378 -101.41732l215.52725 0l42.17337 101.41732z" fill-rule="evenodd"/><path fill="#88e396" d="m643.69385 109.5517l42.1734 -101.41732l215.52728 0l42.17334 101.41732z" fill-rule="evenodd"/><path stroke="#88e396" stroke-width="4.989501312335958" stroke-miterlimit="8.0" stroke-linecap="butt" d="m643.69385 109.5517l42.1734 -101.41732l215.52728 0l42.17334 101.41732z" fill-rule="evenodd"/><path fill="#fff7a4" d="m629.7874 260.60104l0 -56.314957l-274.45673 0l0 56.314957z" fill-rule="evenodd"/><path stroke="#fff7a4" stroke-width="4.989501312335958" stroke-miterlimit="8.0" stroke-linecap="butt" d="m629.7874 260.60104l0 -56.314957l-274.45673 0l0 56.314957z" fill-rule="evenodd"/><path fill="#88e396" d="m78.979485 377.06372l-60.283463 -25.068268l0 -143.75322l60.283463 -25.068283z" fill-rule="evenodd"/><path stroke="#88e396" stroke-width="4.989501312335958" stroke-miterlimit="8.0" stroke-linecap="butt" d="m78.979485 377.06372l-60.283463 -25.068268l0 -143.75322l60.283463 -25.068283z" fill-rule="evenodd"/><path fill="#88e396" d="m948.6095 377.21484l60.283447 -25.068268l0 -143.91069l-60.283447 -25.068283z" fill-rule="evenodd"/><path stroke="#88e396" stroke-width="4.989501312335958" stroke-miterlimit="8.0" stroke-linecap="butt" d="m948.6095 377.21484l60.283447 -25.068268l0 -143.91069l-60.283447 -25.068283z" fill-rule="evenodd"/><path fill="#88e396" d="m83.51015 377.77585l52.692474 72.28345l755.8434 0l52.692505 -72.28345z" fill-rule="evenodd"/><path stroke="#88e396" stroke-width="4.989501312335958" stroke-miterlimit="8.0" stroke-linecap="butt" d="m83.51015 377.77585l52.692474 72.28345l755.8434 0l52.692505 -72.28345z" fill-rule="evenodd"/><path fill="#88e396" d="m82.98711 506.44525l50.05667 -56.31494l758.0914 0l50.0567 56.31494z" fill-rule="evenodd"/><path stroke="#88e396" stroke-width="4.989501312335958" stroke-miterlimit="8.0" stroke-linecap="butt" d="m82.98711 506.44525l50.05667 -56.31494l758.0914 0l50.0567 56.31494z" fill-rule="evenodd"/><path fill="#fff7a4" d="m276.57776 616.03906l235.19635 -112.29172l235.19635 112.29172l-89.836975 181.69177l-290.71872 0z" fill-rule="evenodd"/><path stroke="#fff7a4" stroke-width="4.52755905511811" stroke-miterlimit="8.0" stroke-linecap="butt" d="m276.57776 616.03906l235.19635 -112.29172l235.19635 112.29172l-89.836975 181.69177l-290.71872 0z" fill-rule="evenodd"/><path fill="#fff7a4" d="m856.3834 797.73364l-106.23334 -178.01575l-90.74304 178.01575z" fill-rule="evenodd"/><path stroke="#fff7a4" stroke-width="4.52755905511811" stroke-miterlimit="8.0" stroke-linecap="butt" d="m856.3834 797.73364l-106.23334 -178.01575l-90.74304 178.01575z" fill-rule="evenodd"/><path fill="#fff7a4" d="m167.20688 797.73364l106.23331 -178.01575l90.74307 178.01575z" fill-rule="evenodd"/><path stroke="#fff7a4" stroke-width="4.52755905511811" stroke-miterlimit="8.0" stroke-linecap="butt" d="m167.20688 797.73364l106.23331 -178.01575l90.74307 178.01575z" fill-rule="evenodd"/><path fill="#58cf78" d="m880.9335 869.07904l62.91931 -101.4173l78.02557 0l-62.91931 101.4173z" fill-rule="evenodd"/><path stroke="#58cf78" stroke-width="4.989501312335958" stroke-miterlimit="8.0" stroke-linecap="butt" d="m880.9335 869.07904l62.91931 -101.4173l78.02557 0l-62.91931 101.4173z" fill-rule="evenodd"/><path fill="#88e396" d="m79.43167 739.4082l87.590546 0l0 155.81104l-87.590546 0z" fill-rule="evenodd"/><path stroke="#88e396" stroke-width="4.52755905511811" stroke-miterlimit="8.0" stroke-linecap="butt" d="m79.43167 739.4082l87.590546 0l0 155.81104l-87.590546 0z" fill-rule="evenodd"/><path fill="#88e396" d="m857.6185 739.4082l87.590576 0l0 155.81104l-87.590576 0z" fill-rule="evenodd"/><path stroke="#88e396" stroke-width="4.52755905511811" stroke-miterlimit="8.0" stroke-linecap="butt" d="m857.6185 739.4082l87.590576 0l0 155.81104l-87.590576 0z" fill-rule="evenodd"/><path fill="#000000" fill-opacity="0.0" d="m167.49655 93.259285l122.61847 62.78614l-123.09909 62.783722" fill-rule="evenodd"/><path stroke="#fff7a4" stroke-width="12.800524934383201" stroke-miterlimit="8.0" stroke-linecap="butt" d="m167.49655 93.259285l122.61847 62.78614l-123.09909 62.783722" fill-rule="evenodd"/><path fill="#000000" fill-opacity="0.0" d="m855.7414 93.259285l-122.61847 62.78614l123.09906 62.783722" fill-rule="evenodd"/><path stroke="#fff7a4" stroke-width="12.800524934383201" stroke-miterlimit="8.0" stroke-linecap="butt" d="m855.7414 93.259285l-122.61847 62.78614l123.09906 62.783722" fill-rule="evenodd"/><path fill="#58cf78" d="m482.32547 261.17322l0 -53.73227l91.275604 53.73227z" fill-rule="evenodd"/><path stroke="#58cf78" stroke-width="4.989501312335958" stroke-miterlimit="8.0" stroke-linecap="butt" d="m482.32547 261.17322l0 -53.73227l91.275604 53.73227z" fill-rule="evenodd"/><path fill="#58cf78" d="m355.33072 204.28609l123.08661 0l0 56.314957l-123.08661 0z" fill-rule="evenodd"/><path stroke="#58cf78" stroke-width="4.989501312335958" stroke-miterlimit="8.0" stroke-linecap="butt" d="m355.33072 204.28609l123.08661 0l0 56.314957l-123.08661 0z" fill-rule="evenodd"/></g></svg>