<svg version="1.1" viewBox="0.0 0.0 960.0 960.0" fill="none" stroke="none" stroke-linecap="square" stroke-miterlimit="10" xmlns:xlink="http://www.w3.org/1999/xlink" xmlns="http://www.w3.org/2000/svg"><clipPath id="g3d80697fa2b_0_0.0"><path d="m0 0l960.0 0l0 960.0l-960.0 0l0 -960.0z" clip-rule="nonzero"/></clipPath><g clip-path="url(#g3d80697fa2b_0_0.0)"><path fill="#000000" fill-opacity="0.0" d="m0 0l960.0 0l0 960.0l-960.0 0z" fill-rule="evenodd"/><path fill="#ffffff" d="m69.79662 840.5358l-69.6693 -34.236206l0 -104.031555l69.6693 -34.236206z" fill-rule="evenodd"/><path stroke="#ffffff" stroke-width="4.677165354330708" stroke-miterlimit="8.0" stroke-linecap="butt" d="m69.79662 840.5358l-69.6693 -34.236206l0 -104.031555l69.6693 -34.236206z" fill-rule="evenodd"/><path fill="#ffffff" d="m134.25095 905.2062l-58.991737 -95.08661l-73.13425 0l58.991734 95.08661z" fill-rule="evenodd"/><path stroke="#ffffff" stroke-width="4.677165354330708" stroke-miterlimit="8.0" stroke-linecap="butt" d="m134.25095 905.2062l-58.991737 -95.08661l-73.13425 0l58.991734 95.08661z" fill-rule="evenodd"/><path fill="#ffffff" d="m890.458 840.5358l69.66931 -34.236206l0 -104.031555l-69.66931 -34.236206z" fill-rule="evenodd"/><path stroke="#ffffff" stroke-width="4.677165354330708" stroke-miterlimit="8.0" stroke-linecap="butt" d="m890.458 840.5358l69.66931 -34.236206l0 -104.031555l-69.66931 -34.236206z" fill-rule="evenodd"/><path fill="#ffffff" d="m74.50131 567.5906l811.74805 0l0 392.40942l-811.74805 0z" fill-rule="evenodd"/><path stroke="#ffffff" stroke-width="4.677165354330708" stroke-miterlimit="8.0" stroke-linecap="butt" d="m74.50131 567.5906l811.74805 0l0 392.40942l-811.74805 0z" fill-rule="evenodd"/><path fill="#ffffff" d="m74.59641 147.34123l811.2126 0l0 294.77167l-811.2126 0z" fill-rule="evenodd"/><path stroke="#ffffff" stroke-width="4.677165354330708" stroke-miterlimit="8.0" stroke-linecap="butt" d="m74.59641 147.34123l811.2126 0l0 294.77167l-811.2126 0z" fill-rule="evenodd"/><path fill="#ffffff" d="m75.45996 143.9231l39.540825 -95.086624l202.05222 0l39.540802 95.086624z" fill-rule="evenodd"/><path stroke="#ffffff" stroke-width="4.677165354330708" stroke-miterlimit="8.0" stroke-linecap="butt" d="m75.45996 143.9231l39.540825 -95.086624l202.05222 0l39.540802 95.086624z" fill-rule="evenodd"/><path fill="#ffffff" d="m603.5916 143.9231l39.540833 -95.086624l202.05219 0l39.540833 95.086624z" fill-rule="evenodd"/><path stroke="#ffffff" stroke-width="4.677165354330708" stroke-miterlimit="8.0" stroke-linecap="butt" d="m603.5916 143.9231l39.540833 -95.086624l202.05219 0l39.540833 95.086624z" fill-rule="evenodd"/><path fill="#ffffff" d="m74.160065 442.70773l-56.503937 -23.496613l0 -134.77057l56.503937 -23.496613z" fill-rule="evenodd"/><path stroke="#ffffff" stroke-width="4.677165354330708" stroke-miterlimit="8.0" stroke-linecap="butt" d="m74.160065 442.70773l-56.503937 -23.496613l0 -134.77057l56.503937 -23.496613z" fill-rule="evenodd"/><path fill="#ffffff" d="m889.46185 442.84943l56.503906 -23.496613l0 -134.92807l-56.503906 -23.496582z" fill-rule="evenodd"/><path stroke="#ffffff" stroke-width="4.677165354330708" stroke-miterlimit="8.0" stroke-linecap="butt" d="m889.46185 442.84943l56.503906 -23.496613l0 -134.92807l-56.503906 -23.496582z" fill-rule="evenodd"/><path fill="#ffffff" d="m78.41937 443.36157l49.40924 67.77951l708.58307 0l49.40924 -67.77951z" fill-rule="evenodd"/><path stroke="#ffffff" stroke-width="4.677165354330708" stroke-miterlimit="8.0" stroke-linecap="butt" d="m78.41937 443.36157l49.40924 67.77951l708.58307 0l49.40924 -67.77951z" fill-rule="evenodd"/><path fill="#ffffff" d="m77.929016 563.99506l46.921143 -52.787415l710.7247 0l46.921143 52.787415z" fill-rule="evenodd"/><path stroke="#ffffff" stroke-width="4.677165354330708" stroke-miterlimit="8.0" stroke-linecap="butt" d="m77.929016 563.99506l46.921143 -52.787415l710.7247 0l46.921143 52.787415z" fill-rule="evenodd"/><path fill="#ffffff" d="m826.0037 905.2062l58.9917 -95.08661l73.13428 0l-58.99176 95.08661z" fill-rule="evenodd"/><path stroke="#ffffff" stroke-width="4.677165354330708" stroke-miterlimit="8.0" stroke-linecap="butt" d="m826.0037 905.2062l58.9917 -95.08661l73.13428 0l-58.99176 95.08661z" fill-rule="evenodd"/><path fill="#ffffff" d="m74.5958 783.6319l82.11024 0l0 146.07874l-82.11024 0z" fill-rule="evenodd"/><path stroke="#ffffff" stroke-width="4.244094488188976" stroke-miterlimit="8.0" stroke-linecap="butt" d="m74.5958 783.6319l82.11024 0l0 146.07874l-82.11024 0z" fill-rule="evenodd"/><path fill="#ffffff" d="m804.146 783.6319l82.11023 0l0 146.07874l-82.11023 0z" fill-rule="evenodd"/><path stroke="#ffffff" stroke-width="4.244094488188976" stroke-miterlimit="8.0" stroke-linecap="butt" d="m804.146 783.6319l82.11023 0l0 146.07874l-82.11023 0z" fill-rule="evenodd"/></g></svg>