<svg version="1.1" viewBox="0.0 0.0 640.0 720.0" fill="none" stroke="none" stroke-linecap="square" stroke-miterlimit="10" xmlns:xlink="http://www.w3.org/1999/xlink" xmlns="http://www.w3.org/2000/svg"><clipPath id="g3d63f724d53_0_0.0"><path d="m0 0l640.0 0l0 720.0l-640.0 0l0 -720.0z" clip-rule="nonzero"/></clipPath><g clip-path="url(#g3d63f724d53_0_0.0)"><path fill="#000000" fill-opacity="0.0" d="m0 0l640.0 0l0 720.0l-640.0 0z" fill-rule="evenodd"/><path fill="#b05f81" d="m470.49808 627.3806l-187.1181 85.57483l-11.181122 -24.472473l187.11813 -85.57477z" fill-rule="evenodd"/><path stroke="#b05f81" stroke-width="7.913385826771654" stroke-miterlimit="8.0" stroke-linecap="butt" d="m470.49808 627.3806l-187.1181 85.57483l-11.181122 -24.472473l187.11813 -85.57477z" fill-rule="evenodd"/><path fill="#b05f81" d="m278.15454 713.499l-202.48819 -36.75592l4.850395 -26.48816l202.48819 36.75592z" fill-rule="evenodd"/><path stroke="#b05f81" stroke-width="7.913385826771654" stroke-miterlimit="8.0" stroke-linecap="butt" d="m278.15454 713.499l-202.48819 -36.75592l4.850395 -26.48816l202.48819 36.75592z" fill-rule="evenodd"/><path fill="#b05f81" d="m71.72059 673.6202l-38.740158 -49.88977l21.29134 -16.503967l38.740154 49.88977z" fill-rule="evenodd"/><path stroke="#b05f81" stroke-width="7.913385826771654" stroke-miterlimit="8.0" stroke-linecap="butt" d="m71.72059 673.6202l-38.740158 -49.88977l21.29134 -16.503967l38.740154 49.88977z" fill-rule="evenodd"/><path fill="#b05f81" d="m191.71205 501.31775l-163.33858 116.47241l-15.527558 -21.984192l163.33858 -116.47247z" fill-rule="evenodd"/><path stroke="#b05f81" stroke-width="7.913385826771654" stroke-miterlimit="8.0" stroke-linecap="butt" d="m191.71205 501.31775l-163.33858 116.47241l-15.527558 -21.984192l163.33858 -116.47247z" fill-rule="evenodd"/><path fill="#b05f81" d="m365.02115 493.2612l-182.17323 11.023621l-1.5748138 -26.86615l182.17325 -11.023621z" fill-rule="evenodd"/><path stroke="#b05f81" stroke-width="7.913385826771654" stroke-miterlimit="8.0" stroke-linecap="butt" d="m365.02115 493.2612l-182.17323 11.023621l-1.5748138 -26.86615l182.17325 -11.023621z" fill-rule="evenodd"/><path fill="#b05f81" d="m623.96674 394.07068l-252.62994 97.5748l-9.637787 -25.102356l252.62991 -97.57483z" fill-rule="evenodd"/><path stroke="#b05f81" stroke-width="7.913385826771654" stroke-miterlimit="8.0" stroke-linecap="butt" d="m623.96674 394.07068l-252.62994 97.5748l-9.637787 -25.102356l252.62991 -97.57483z" fill-rule="evenodd"/><path fill="#b05f81" d="m624.8493 303.10416l0.28344727 89.00787l-26.929138 0l-0.28344727 -89.00787z" fill-rule="evenodd"/><path stroke="#b05f81" stroke-width="7.913385826771654" stroke-miterlimit="8.0" stroke-linecap="butt" d="m624.8493 303.10416l0.28344727 89.00787l-26.929138 0l-0.28344727 -89.00787z" fill-rule="evenodd"/><path fill="#b05f81" d="m459.19754 262.41547l164.88187 39.590546l-6.3306885 26.173248l-164.8819 -39.590576z" fill-rule="evenodd"/><path stroke="#b05f81" stroke-width="7.913385826771654" stroke-miterlimit="8.0" stroke-linecap="butt" d="m459.19754 262.41547l164.88187 39.590546l-6.3306885 26.173248l-164.8819 -39.590576z" fill-rule="evenodd"/><path fill="#b05f81" d="m195.83836 262.1133l256.59845 -0.4724121l0 26.929108l-256.59845 0.47244263z" fill-rule="evenodd"/><path stroke="#b05f81" stroke-width="7.913385826771654" stroke-miterlimit="8.0" stroke-linecap="butt" d="m195.83836 262.1133l256.59845 -0.4724121l0 26.929108l-256.59845 0.47244263z" fill-rule="evenodd"/><path fill="#b05f81" d="m142.21266 208.93143l66.866135 57.88977l-17.669281 20.314941l-66.86615 -57.889755z" fill-rule="evenodd"/><path stroke="#b05f81" stroke-width="7.913385826771654" stroke-miterlimit="8.0" stroke-linecap="butt" d="m142.21266 208.93143l66.866135 57.88977l-17.669281 20.314941l-66.86615 -57.889755z" fill-rule="evenodd"/><path fill="#b05f81" d="m112.91248 199.3503l391.84253 -129.51181l8.409424 25.6063l-391.8425 129.51181z" fill-rule="evenodd"/><path stroke="#b05f81" stroke-width="7.913385826771654" stroke-miterlimit="8.0" stroke-linecap="butt" d="m112.91248 199.3503l391.84253 -129.51181l8.409424 25.6063l-391.8425 129.51181z" fill-rule="evenodd"/><path fill="#b05f81" d="m592.93945 48.77387l5.3513184 45.45467l-80.43317 30.50325l-26.108124 -37.582916z" fill-rule="evenodd"/><path stroke="#b05f81" stroke-width="3.858267716535433" stroke-miterlimit="8.0" stroke-linecap="butt" d="m592.93945 48.77387l5.3513184 45.45467l-80.43317 30.50325l-26.108124 -37.582916z" fill-rule="evenodd"/><path fill="#b05f81" d="m490.5254 84.38277l-5.3515015 -45.455044l80.5459 -30.54937l26.107971 37.58254z" fill-rule="evenodd"/><path stroke="#b05f81" stroke-width="3.858267716535433" stroke-miterlimit="8.0" stroke-linecap="butt" d="m490.5254 84.38277l-5.3515015 -45.455044l80.5459 -30.54937l26.107971 37.58254z" fill-rule="evenodd"/><path fill="#b05f81" d="m429.92386 118.40974l67.17975 -19.41233l16.35147 25.819092z" fill-rule="evenodd"/><path stroke="#b05f81" stroke-width="3.858267716535433" stroke-miterlimit="8.0" stroke-linecap="butt" d="m429.92386 118.40974l67.17975 -19.41233l16.35147 25.819092z" fill-rule="evenodd"/><path fill="#b05f81" d="m423.51843 101.517136l63.171265 -29.987244l-4.8733215 -30.173466z" fill-rule="evenodd"/><path stroke="#b05f81" stroke-width="3.858267716535433" stroke-miterlimit="8.0" stroke-linecap="butt" d="m423.51843 101.517136l63.171265 -29.987244l-4.8733215 -30.173466z" fill-rule="evenodd"/></g></svg>