<svg version="1.1" viewBox="0.0 0.0 960.0 960.0" fill="none" stroke="none" stroke-linecap="square" stroke-miterlimit="10" xmlns:xlink="http://www.w3.org/1999/xlink" xmlns="http://www.w3.org/2000/svg"><clipPath id="g3e10030d6bb_0_27.0"><path d="m0 0l960.0 0l0 960.0l-960.0 0l0 -960.0z" clip-rule="nonzero"/></clipPath><g clip-path="url(#g3e10030d6bb_0_27.0)"><path fill="#000000" fill-opacity="0.0" d="m0 0l960.0 0l0 960.0l-960.0 0z" fill-rule="evenodd"/><path fill="#c7f4ff" d="m-581.5381 -53.587925c0 -44.60895 36.16272 -80.77165 80.77167 -80.77165c21.421997 0 41.966583 8.509842 57.114197 23.657463c15.147614 15.147621 23.65747 35.692207 23.65747 57.114185c0 44.60895 -36.16269 80.77165 -80.77167 80.77165c-44.608948 0 -80.77167 -36.1627 -80.77167 -80.77165z" fill-rule="evenodd"/><path stroke="#595959" stroke-width="1.0" stroke-linejoin="round" stroke-linecap="butt" d="m-581.5381 -53.587925c0 -44.60895 36.16272 -80.77165 80.77167 -80.77165c21.421997 0 41.966583 8.509842 57.114197 23.657463c15.147614 15.147621 23.65747 35.692207 23.65747 57.114185c0 44.60895 -36.16269 80.77165 -80.77167 80.77165c-44.608948 0 -80.77167 -36.1627 -80.77167 -80.77165z" fill-rule="evenodd"/><path fill="#2b80d6" d="m-604.25195 90.74541c0 -44.60895 36.16266 -80.77165 80.77167 -80.77165c21.421936 0 41.966522 8.509846 57.114166 23.657469c15.147614 15.147625 23.65747 35.69221 23.65747 57.114185c0 44.608948 -36.16272 80.77165 -80.77164 80.77165c-44.60901 0 -80.77167 -36.162704 -80.77167 -80.77165z" fill-rule="evenodd"/><path stroke="#595959" stroke-width="1.0" stroke-linejoin="round" stroke-linecap="butt" d="m-604.25195 90.74541c0 -44.60895 36.16266 -80.77165 80.77167 -80.77165c21.421936 0 41.966522 8.509846 57.114166 23.657469c15.147614 15.147625 23.65747 35.69221 23.65747 57.114185c0 44.608948 -36.16272 80.77165 -80.77164 80.77165c-44.60901 0 -80.77167 -36.162704 -80.77167 -80.77165z" fill-rule="evenodd"/><path fill="#ff9ab7" d="m262.97638 407.18634l434.04724 0l0 304.25195l-434.04724 0z" fill-rule="evenodd"/><path stroke="#ff9ab7" stroke-width="1.0" stroke-linejoin="round" stroke-linecap="butt" d="m262.97638 407.18634l434.04724 0l0 304.25195l-434.04724 0z" fill-rule="evenodd"/><path fill="#e27aa5" d="m262.97638 407.1916l57.66156 -129.79526l318.72412 0l57.66156 129.79526z" fill-rule="evenodd"/><path stroke="#e27aa5" stroke-width="1.0" stroke-linejoin="round" stroke-linecap="butt" d="m262.97638 407.1916l57.66156 -129.79526l318.72412 0l57.66156 129.79526z" fill-rule="evenodd"/><path fill="#c7f4ff" d="m342.25723 248.56285l45.763763 0l0 91.464584l-45.763763 0z" fill-rule="evenodd"/><path stroke="#c7f4ff" stroke-width="1.0" stroke-linejoin="round" stroke-linecap="butt" d="m342.25723 248.56285l45.763763 0l0 91.464584l-45.763763 0z" fill-rule="evenodd"/><path fill="#e27aa5" d="m427.82678 562.06824l104.346436 0l0 149.35431l-104.346436 0z" fill-rule="evenodd"/><path stroke="#e27aa5" stroke-width="1.0" stroke-linejoin="round" stroke-linecap="butt" d="m427.82678 562.06824l104.346436 0l0 149.35431l-104.346436 0z" fill-rule="evenodd"/><path fill="#c7f4ff" d="m551.16534 468.41733l104.3465 0l0 69.03934l-104.3465 0z" fill-rule="evenodd"/><path stroke="#c7f4ff" stroke-width="1.0" stroke-linejoin="round" stroke-linecap="butt" d="m551.16534 468.41733l104.3465 0l0 69.03934l-104.3465 0z" fill-rule="evenodd"/><path fill="#c7f4ff" d="m304.4882 468.41733l104.346466 0l0 69.03934l-104.346466 0z" fill-rule="evenodd"/><path stroke="#c7f4ff" stroke-width="1.0" stroke-linejoin="round" stroke-linecap="butt" d="m304.4882 468.41733l104.346466 0l0 69.03934l-104.346466 0z" fill-rule="evenodd"/><path fill="#c7f4ff" d="m503.36746 632.95416l5.368866 -5.3688354l7.5929565 0l5.3688965 5.3688354l0 7.5929565l-5.3688965 5.3688965l-7.5929565 0l-5.368866 -5.3688965z" fill-rule="evenodd"/><path stroke="#c7f4ff" stroke-width="1.0" stroke-linejoin="round" stroke-linecap="butt" d="m503.36746 632.95416l5.368866 -5.3688354l7.5929565 0l5.3688965 5.3688354l0 7.5929565l-5.3688965 5.3688965l-7.5929565 0l-5.368866 -5.3688965z" fill-rule="evenodd"/><path fill="#000000" fill-opacity="0.0" d="m356.6614 455.55118l0 94.77164" fill-rule="evenodd"/><path stroke="#ff9ab7" stroke-width="4.0" stroke-linejoin="round" stroke-linecap="butt" d="m356.6614 455.55118l0 94.77164" fill-rule="evenodd"/><path fill="#000000" fill-opacity="0.0" d="m413.85828 502.937l-114.39371 0" fill-rule="evenodd"/><path stroke="#ff9ab7" stroke-width="4.0" stroke-linejoin="round" stroke-linecap="butt" d="m413.85828 502.937l-114.39371 0" fill-rule="evenodd"/><path fill="#000000" fill-opacity="0.0" d="m603.33856 455.55118l0 94.77164" fill-rule="evenodd"/><path stroke="#ff9ab7" stroke-width="4.0" stroke-linejoin="round" stroke-linecap="butt" d="m603.33856 455.55118l0 94.77164" fill-rule="evenodd"/><path fill="#000000" fill-opacity="0.0" d="m660.53546 502.937l-114.39374 0" fill-rule="evenodd"/><path stroke="#ff9ab7" stroke-width="4.0" stroke-linejoin="round" stroke-linecap="butt" d="m660.53546 502.937l-114.39374 0" fill-rule="evenodd"/></g></svg>