<svg version="1.1" viewBox="0.0 0.0 960.0 960.0" fill="none" stroke="none" stroke-linecap="square" stroke-miterlimit="10" xmlns:xlink="http://www.w3.org/1999/xlink" xmlns="http://www.w3.org/2000/svg"><clipPath id="g3ea68edebb7_0_29.0"><path d="m0 0l960.0 0l0 960.0l-960.0 0l0 -960.0z" clip-rule="nonzero"/></clipPath><g clip-path="url(#g3ea68edebb7_0_29.0)"><path fill="#000000" fill-opacity="0.0" d="m0 0l960.0 0l0 960.0l-960.0 0z" fill-rule="evenodd"/><path fill="#a6836e" d="m273.95197 592.3788l37.061737 -41.17737l53.24231 5.4903564l88.46399 -19.976013l102.731964 31.39209l101.472534 -31.319519l32.941833 59.710266l-148.24689 35.003967l-160.60217 -12.355347z" fill-rule="evenodd"/><path stroke="#a6836e" stroke-width="1.6246719160104988" stroke-linejoin="round" stroke-linecap="butt" d="m273.95197 592.3788l37.061737 -41.17737l53.24231 5.4903564l88.46399 -19.976013l102.731964 31.39209l101.472534 -31.319519l32.941833 59.710266l-148.24689 35.003967l-160.60217 -12.355347z" fill-rule="evenodd"/><path fill="#49200b" d="m220.28346 578.3791l519.4331 0l0 94.48822l-519.4331 0z" fill-rule="evenodd"/><path stroke="#595959" stroke-width="1.6246719160104988" stroke-linejoin="round" stroke-linecap="butt" d="m220.28346 578.3791l519.4331 0l0 94.48822l-519.4331 0z" fill-rule="evenodd"/><path fill="#695046" d="m493.9412 245.67036l28.096222 -26.614761l35.4906 8.871582l-25.141846 20.701797l-32.531982 14.788834z" fill-rule="evenodd"/><path stroke="#695046" stroke-width="13.013123359580053" stroke-linejoin="round" stroke-linecap="butt" d="m493.9412 245.67036l28.096222 -26.614761l35.4906 8.871582l-25.141846 20.701797l-32.531982 14.788834z" fill-rule="evenodd"/><path fill="#695046" d="m700.2732 672.8662l-66.10242 264.40942l-308.3307 0l-66.102356 -264.40942z" fill-rule="evenodd"/><path stroke="#595959" stroke-width="1.6246719160104988" stroke-linejoin="round" stroke-linecap="butt" d="m700.2732 672.8662l-66.10242 264.40942l-308.3307 0l-66.102356 -264.40942z" fill-rule="evenodd"/><path fill="#000000" fill-opacity="0.0" d="m424.22467 110.9802l62.195007 76.54412l14.349091 177.01337" fill-rule="evenodd"/><path stroke="#695046" stroke-width="13.013123359580053" stroke-linejoin="round" stroke-linecap="butt" d="m424.22467 110.9802l62.195007 76.54412l14.349091 177.01337" fill-rule="evenodd"/><path fill="#a6836e" d="m583.99054 331.2558l-88.46402 8.559937l-54.22 -54.22l-48.516205 57.07187l39.952026 128.41602l48.511963 31.39212l62.78421 -37.095886l54.21997 -34.24826z" fill-rule="evenodd"/><path stroke="#a6836e" stroke-width="1.6246719160104988" stroke-linejoin="round" stroke-linecap="butt" d="m583.99054 331.2558l-88.46402 8.559937l-54.22 -54.22l-48.516205 57.07187l39.952026 128.41602l48.511963 31.39212l62.78421 -37.095886l54.21997 -34.24826z" fill-rule="evenodd"/><path fill="#a6836e" d="m548.5407 486.25778l6.08374 24.322144l-10.643372 24.322174l-15.202942 -9.119202l0 -21.28244z" fill-rule="evenodd"/><path stroke="#a6836e" stroke-width="1.6246719160104988" stroke-linejoin="round" stroke-linecap="butt" d="m548.5407 486.25778l6.08374 24.322144l-10.643372 24.322174l-15.202942 -9.119202l0 -21.28244z" fill-rule="evenodd"/><path fill="#ff9ab7" d="m455.027 103.41494l9.573822 -24.388298l-20.856323 -7.138344l-22.463745 19.976562l6.972992 19.484543z" fill-rule="evenodd"/><path stroke="#ff9ab7" stroke-width="1.1916010498687664" stroke-linejoin="round" stroke-linecap="butt" d="m455.027 103.41494l9.573822 -24.388298l-20.856323 -7.138344l-22.463745 19.976562l6.972992 19.484543z" fill-rule="evenodd"/><path fill="#ff9ab7" d="m374.2941 141.60062l4.780365 23.287766l23.071655 -8.384842l9.478729 -28.469894l-17.213501 -9.210503z" fill-rule="evenodd"/><path stroke="#ff9ab7" stroke-width="1.1916010498687664" stroke-linejoin="round" stroke-linecap="butt" d="m374.2941 141.60062l4.780365 23.287766l23.071655 -8.384842l9.478729 -28.469894l-17.213501 -9.210503z" fill-rule="evenodd"/><path fill="#ff9ab7" d="m422.49466 152.08495l23.240082 -1.7971344l3.5808716 -25.124527l-21.027008 -13.730667l-16.576263 16.638504z" fill-rule="evenodd"/><path stroke="#ff9ab7" stroke-width="1.1916010498687664" stroke-linejoin="round" stroke-linecap="butt" d="m422.49466 152.08495l23.240082 -1.7971344l3.5808716 -25.124527l-21.027008 -13.730667l-16.576263 16.638504z" fill-rule="evenodd"/><path fill="#ff9ab7" d="m377.03378 86.54789l-20.284393 16.192543l10.689972 19.936668l26.891205 -3.8710022l5.929657 -22.329079z" fill-rule="evenodd"/><path stroke="#ff9ab7" stroke-width="1.1916010498687664" stroke-linejoin="round" stroke-linecap="butt" d="m377.03378 86.54789l-20.284393 16.192543l10.689972 19.936668l26.891205 -3.8710022l5.929657 -22.329079z" fill-rule="evenodd"/><path fill="#ff9ab7" d="m393.0109 70.50943l16.477173 -20.70905l17.318878 13.292858l-5.773529 28.924484l-20.887085 4.583458z" fill-rule="evenodd"/><path stroke="#ff9ab7" stroke-width="1.1916010498687664" stroke-linejoin="round" stroke-linecap="butt" d="m393.0109 70.50943l16.477173 -20.70905l17.318878 13.292858l-5.773529 28.924484l-20.887085 4.583458z" fill-rule="evenodd"/><path fill="#e27aa5" d="m421.3319 91.761765l-21.018127 4.625099l-5.976349 22.472534l17.324524 9.263695l16.683502 -16.747269z" fill-rule="evenodd"/><path stroke="#e27aa5" stroke-width="1.1916010498687664" stroke-linejoin="round" stroke-linecap="butt" d="m421.3319 91.761765l-21.018127 4.625099l-5.976349 22.472534l17.324524 9.263695l16.683502 -16.747269z" fill-rule="evenodd"/><path fill="#000000" fill-opacity="0.1727" d="m584.0625 330.03836l-46.419983 95.781525l-103.27844 45.523468l47.060394 31.439056l118.216705 -71.93756z" fill-rule="evenodd"/></g></svg>