<svg version="1.1" viewBox="0.0 0.0 457.3228346456693 960.0" fill="none" stroke="none" stroke-linecap="square" stroke-miterlimit="10" xmlns:xlink="http://www.w3.org/1999/xlink" xmlns="http://www.w3.org/2000/svg"><clipPath id="g3d2e3d6bc2f_0_98.0"><path d="m0 0l457.32285 0l0 960.0l-457.32285 0l0 -960.0z" clip-rule="nonzero"/></clipPath><g clip-path="url(#g3d2e3d6bc2f_0_98.0)"><path fill="#000000" fill-opacity="0.0" d="m0 0l457.32285 0l0 960.0l-457.32285 0z" fill-rule="evenodd"/><path fill="#b05f81" d="m97.541985 731.3337l-17.112411 -34.70764l10.6657715 -19.43512l38.509636 -4.2824707z" fill-rule="evenodd"/><path stroke="#b05f81" stroke-width="3.3595800524934383" stroke-miterlimit="8.0" stroke-linecap="butt" d="m97.541985 731.3337l-17.112411 -34.70764l10.6657715 -19.43512l38.509636 -4.2824707z" fill-rule="evenodd"/><path fill="#b05f81" d="m99.525764 733.6251l58.714455 11.808228l15.673462 -28.529907l-41.44304 -43.246826z" fill-rule="evenodd"/><path stroke="#b05f81" stroke-width="3.3595800524934383" stroke-miterlimit="8.0" stroke-linecap="butt" d="m99.525764 733.6251l58.714455 11.808228l15.673462 -28.529907l-41.44304 -43.246826z" fill-rule="evenodd"/><path fill="#b05f81" d="m263.54385 647.2904l31.716553 22.249512l0 22.115234l-31.716553 22.24945z" fill-rule="evenodd"/><path stroke="#b05f81" stroke-width="3.3595800524934383" stroke-miterlimit="8.0" stroke-linecap="butt" d="m263.54385 647.2904l31.716553 22.249512l0 22.115234l-31.716553 22.24945z" fill-rule="evenodd"/><path fill="#b05f81" d="m260.72232 646.2478l-57.181854 17.878357l-0.02998352 32.58972l57.14885 18.004333z" fill-rule="evenodd"/><path stroke="#b05f81" stroke-width="3.3595800524934383" stroke-miterlimit="8.0" stroke-linecap="butt" d="m260.72232 646.2478l-57.181854 17.878357l-0.02998352 32.58972l57.14885 18.004333z" fill-rule="evenodd"/><path fill="#b05f81" d="m179.22488 532.56995l17.3322 -34.71637l21.871033 -3.291626l26.718033 28.086792z" fill-rule="evenodd"/><path stroke="#b05f81" stroke-width="3.3595800524934383" stroke-miterlimit="8.0" stroke-linecap="butt" d="m179.22488 532.56995l17.3322 -34.71637l21.871033 -3.291626l26.718033 28.086792z" fill-rule="evenodd"/><path fill="#b05f81" d="m178.67632 535.4425l34.597275 86.59064l25.199142 -3.764038l7.888611 -92.93689z" fill-rule="evenodd"/><path stroke="#b05f81" stroke-width="3.3595800524934383" stroke-miterlimit="8.0" stroke-linecap="butt" d="m178.67632 535.4425l34.597275 86.59064l25.199142 -3.764038l7.888611 -92.93689z" fill-rule="evenodd"/><path fill="#b05f81" d="m344.9089 400.38052l38.597076 -3.2352295l14.175903 16.990173l-10.095825 37.394684z" fill-rule="evenodd"/><path stroke="#b05f81" stroke-width="3.3595800524934383" stroke-miterlimit="8.0" stroke-linecap="butt" d="m344.9089 400.38052l38.597076 -3.2352295l14.175903 16.990173l-10.095825 37.394684z" fill-rule="evenodd"/><path fill="#b05f81" d="m342.03137 401.4045l-55.96057 74.52377l16.299103 19.582397l83.44098 -41.50775z" fill-rule="evenodd"/><path stroke="#b05f81" stroke-width="3.3595800524934383" stroke-miterlimit="8.0" stroke-linecap="butt" d="m342.03137 401.4045l-55.96057 74.52377l16.299103 19.582397l83.44098 -41.50775z" fill-rule="evenodd"/><path fill="#b05f81" d="m249.0696 355.408l-17.112396 -34.70761l10.665756 -19.43518l38.509644 -4.2824097z" fill-rule="evenodd"/><path stroke="#b05f81" stroke-width="3.3595800524934383" stroke-miterlimit="8.0" stroke-linecap="butt" d="m249.0696 355.408l-17.112396 -34.70761l10.665756 -19.43518l38.509644 -4.2824097z" fill-rule="evenodd"/><path fill="#b05f81" d="m251.05339 357.6994l58.71443 11.808258l15.673462 -28.529877l-41.443024 -43.246857z" fill-rule="evenodd"/><path stroke="#b05f81" stroke-width="3.3595800524934383" stroke-miterlimit="8.0" stroke-linecap="butt" d="m251.05339 357.6994l58.71443 11.808258l15.673462 -28.529877l-41.443024 -43.246857z" fill-rule="evenodd"/><path fill="#b05f81" d="m406.25546 185.99931l37.106415 11.141006l6.952545 20.993591l-23.114075 31.109497z" fill-rule="evenodd"/><path stroke="#b05f81" stroke-width="3.3595800524934383" stroke-miterlimit="8.0" stroke-linecap="butt" d="m406.25546 185.99931l37.106415 11.141006l6.952545 20.993591l-23.114075 31.109497z" fill-rule="evenodd"/><path fill="#b05f81" d="m403.2206 185.91252l-48.620087 34.91133l10.216553 30.964752l59.852356 -0.86820984z" fill-rule="evenodd"/><path stroke="#b05f81" stroke-width="3.3595800524934383" stroke-miterlimit="8.0" stroke-linecap="butt" d="m403.2206 185.91252l-48.620087 34.91133l10.216553 30.964752l59.852356 -0.86820984z" fill-rule="evenodd"/><path fill="#e27aa5" d="m321.33487 291.8012l12.724426 -125.44882l38.173218 0l-12.724426 125.44882z" fill-rule="evenodd"/><path stroke="#e27aa5" stroke-width="2.0708661417322833" stroke-miterlimit="8.0" stroke-linecap="butt" d="m321.33487 291.8012l12.724426 -125.44882l38.173218 0l-12.724426 125.44882z" fill-rule="evenodd"/><path fill="#e27aa5" d="m250.90492 543.20636l70.310196 -251.40155l38.06775 0l-70.31018 251.40155z" fill-rule="evenodd"/><path stroke="#e27aa5" stroke-width="2.0708661417322833" stroke-miterlimit="8.0" stroke-linecap="butt" d="m250.90492 543.20636l70.310196 -251.40155l38.06775 0l-70.31018 251.40155z" fill-rule="evenodd"/><path fill="#e27aa5" d="m191.06834 668.6794l60.30461 -125.44885l37.459167 0l-60.30461 125.44885z" fill-rule="evenodd"/><path stroke="#e27aa5" stroke-width="2.0708661417322833" stroke-miterlimit="8.0" stroke-linecap="butt" d="m191.06834 668.6794l60.30461 -125.44885l37.459167 0l-60.30461 125.44885z" fill-rule="evenodd"/><path fill="#e27aa5" d="m101.78789 793.64166l89.80003 -125.44885l37.034622 0l-89.80003 125.44885z" fill-rule="evenodd"/><path stroke="#e27aa5" stroke-width="2.0708661417322833" stroke-miterlimit="8.0" stroke-linecap="butt" d="m101.78789 793.64166l89.80003 -125.44885l37.034622 0l-89.80003 125.44885z" fill-rule="evenodd"/><path fill="#e27aa5" d="m334.09433 166.35002l8.050964 -125.44882l38.40573 0l-8.050934 125.44882z" fill-rule="evenodd"/><path stroke="#e27aa5" stroke-width="2.0708661417322833" stroke-miterlimit="8.0" stroke-linecap="butt" d="m334.09433 166.35002l8.050964 -125.44882l38.40573 0l-8.050934 125.44882z" fill-rule="evenodd"/><path fill="#e27aa5" d="m0.0025480315 919.09344l102.10154 -125.44885l36.859093 0l-102.10155 125.44885z" fill-rule="evenodd"/><path stroke="#e27aa5" stroke-width="2.0708661417322833" stroke-miterlimit="8.0" stroke-linecap="butt" d="m0.0025480315 919.09344l102.10154 -125.44885l36.859093 0l-102.10155 125.44885z" fill-rule="evenodd"/></g></svg>