<svg version="1.1" viewBox="0.0 0.0 960.0 960.0" fill="none" stroke="none" stroke-linecap="square" stroke-miterlimit="10" xmlns:xlink="http://www.w3.org/1999/xlink" xmlns="http://www.w3.org/2000/svg"><clipPath id="g3ea68edebb7_0_77.0"><path d="m0 0l960.0 0l0 960.0l-960.0 0l0 -960.0z" clip-rule="nonzero"/></clipPath><g clip-path="url(#g3ea68edebb7_0_77.0)"><path fill="#000000" fill-opacity="0.0" d="m0 0l960.0 0l0 960.0l-960.0 0z" fill-rule="evenodd"/><path fill="#999999" d="m580.5636 490.57068l-17.627808 25.586731l-35.158203 27.484192l-41.708893 12.912781l-35.669983 0.29571533l-27.277893 -10.012634l28.045197 -3.1538696l32.41208 -5.8217773l30.564362 -16.918396l21.161926 -22.688843l26.453247 -18.641327z" fill-rule="evenodd"/><path stroke="#999999" stroke-width="1.6377952755905512" stroke-linejoin="round" stroke-linecap="butt" d="m580.5636 490.57068l-17.627808 25.586731l-35.158203 27.484192l-41.708893 12.912781l-35.669983 0.29571533l-27.277893 -10.012634l28.045197 -3.1538696l32.41208 -5.8217773l30.564362 -16.918396l21.161926 -22.688843l26.453247 -18.641327z" fill-rule="evenodd"/><path fill="#695046" d="m470.87366 507.62186l28.284485 -26.793121l35.728455 8.93103l-25.310333 20.840515l-32.75 14.887939z" fill-rule="evenodd"/><path stroke="#695046" stroke-width="13.0997375328084" stroke-linejoin="round" stroke-linecap="butt" d="m470.87366 507.62186l28.284485 -26.793121l35.728455 8.93103l-25.310333 20.840515l-32.75 14.887939z" fill-rule="evenodd"/><path fill="#000000" fill-opacity="0.0" d="m375.11282 440.01187l88.1886 9.072876l14.445251 178.19955" fill-rule="evenodd"/><path stroke="#695046" stroke-width="13.0997375328084" stroke-linejoin="round" stroke-linecap="butt" d="m375.11282 440.01187l88.1886 9.072876l14.445251 178.19955" fill-rule="evenodd"/><path fill="#a6836e" d="m672.193 589.956l-196.80084 -12.016968l-73.61444 13.52124l-130.69913 15.021118l138.1861 128.06458l48.837036 31.602417l63.204926 -37.34442l54.583313 -34.477783z" fill-rule="evenodd"/><path stroke="#a6836e" stroke-width="1.6377952755905512" stroke-linejoin="round" stroke-linecap="butt" d="m672.193 589.956l-196.80084 -12.016968l-73.61444 13.52124l-130.69913 15.021118l138.1861 128.06458l48.837036 31.602417l63.204926 -37.34442l54.583313 -34.477783z" fill-rule="evenodd"/><path fill="#926c57" d="m397.0156 401.10193l-13.404449 -22.718903l-18.595947 12.119232l1.911499 30.208984l19.777344 6.5509644z" fill-rule="evenodd"/><path stroke="#926c57" stroke-width="1.1994750656167978" stroke-linejoin="round" stroke-linecap="butt" d="m397.0156 401.10193l-13.404449 -22.718903l-18.595947 12.119232l1.911499 30.208984l19.777344 6.5509644z" fill-rule="evenodd"/><path fill="#926c57" d="m377.2311 488.82925l21.433777 10.648895l7.6586914 -23.50296l-16.70047 -25.17456l-17.980103 7.944275z" fill-rule="evenodd"/><path stroke="#926c57" stroke-width="1.1994750656167978" stroke-linejoin="round" stroke-linecap="butt" d="m377.2311 488.82925l21.433777 10.648895l7.6586914 -23.50296l-16.70047 -25.17456l-17.980103 7.944275z" fill-rule="evenodd"/><path fill="#926c57" d="m415.439 457.0921l12.987732 -19.551422l-17.705017 -18.421082l-23.930054 8.166565l2.9154663 23.468292z" fill-rule="evenodd"/><path stroke="#926c57" stroke-width="1.1994750656167978" stroke-linejoin="round" stroke-linecap="butt" d="m415.439 457.0921l12.987732 -19.551422l-17.705017 -18.421082l-23.930054 8.166565l2.9154663 23.468292z" fill-rule="evenodd"/><path fill="#926c57" d="m335.26886 452.51633l0.26205444 26.133514l22.441132 3.8825378l13.60733 -23.733948l-14.031342 -18.550964z" fill-rule="evenodd"/><path stroke="#926c57" stroke-width="1.1994750656167978" stroke-linejoin="round" stroke-linecap="butt" d="m335.26886 452.51633l0.26205444 26.133514l22.441132 3.8825378l13.60733 -23.733948l-14.031342 -18.550964z" fill-rule="evenodd"/><path fill="#926c57" d="m332.45773 429.89545l-6.2052 -25.91391l21.283142 -5.4963074l19.358887 22.517029l-9.318695 19.412567z" fill-rule="evenodd"/><path stroke="#926c57" stroke-width="1.1994750656167978" stroke-linejoin="round" stroke-linecap="butt" d="m332.45773 429.89545l-6.2052 -25.91391l21.283142 -5.4963074l19.358887 22.517029l-9.318695 19.412567z" fill-rule="evenodd"/><path fill="#695046" d="m366.87665 420.60675l-9.366913 19.542328l14.11618 18.67694l18.091156 -7.999359l-2.9351807 -23.62082z" fill-rule="evenodd"/><path stroke="#695046" stroke-width="1.1994750656167978" stroke-linejoin="round" stroke-linecap="butt" d="m366.87665 420.60675l-9.366913 19.542328l14.11618 18.67694l18.091156 -7.999359l-2.9351807 -23.62082z" fill-rule="evenodd"/><path fill="#88e396" d="m226.29608 592.8011l-119.44295 19.267456l-65.5 36.600952l25.043865 57.793823l202.28067 50.08777l335.20612 17.34198l213.83777 -71.28064l46.236816 -53.942932l-55.829773 -21.99237l-124.54022 0l-187.96869 28.830322l-164.90182 -18.450928z" fill-rule="evenodd"/><path fill="#a6836e" d="m295.64575 573.538l92.611145 32.94342l157.83179 30.631104l126.104675 -54.664978l66.5401 23.840454l73.20618 21.192932l-146.4123 26.96936l-211.90799 23.118408l-211.91226 -26.973633l-23.118393 -55.864136z" fill-rule="evenodd"/><path stroke="#a6836e" stroke-width="1.6377952755905512" stroke-linejoin="round" stroke-linecap="butt" d="m295.64575 573.538l92.611145 32.94342l157.83179 30.631104l126.104675 -54.664978l66.5401 23.840454l73.20618 21.192932l-146.4123 26.96936l-211.90799 23.118408l-211.91226 -26.973633l-23.118393 -55.864136z" fill-rule="evenodd"/><path fill="#b7b7b7" d="m621.5642 407.001l25.509338 66.35773l33.31543 3.8874817l-38.86029 -87.74524z" fill-rule="evenodd"/><path stroke="#b7b7b7" stroke-width="1.6377952755905512" stroke-linejoin="round" stroke-linecap="butt" d="m621.5642 407.001l25.509338 66.35773l33.31543 3.8874817l-38.86029 -87.74524z" fill-rule="evenodd"/><path fill="#999999" d="m581.7671 387.92972l-26.662231 29.463013l-28.006592 43.79834l48.47345 -8.585602l15.577026 -25.861664l24.977722 -20.671661z" fill-rule="evenodd"/><path stroke="#999999" stroke-width="1.6377952755905512" stroke-linejoin="round" stroke-linecap="butt" d="m581.7671 387.92972l-26.662231 29.463013l-28.006592 43.79834l48.47345 -8.585602l15.577026 -25.861664l24.977722 -20.671661z" fill-rule="evenodd"/><path fill="#b7b7b7" d="m620.1821 507.50543l-52.177307 -15.364166l-33.80432 14.315918l-48.417633 15.019379l-61.232758 -14.414551l-17.934875 -11.842957l33.820496 -11.972748l65.88867 -24.5177l45.740173 -20.553284l19.568481 -2.7926025l17.346619 11.264221l7.990906 11.92453l20.813599 5.9686584l27.023865 14.983948l-14.189636 16.784027z" fill-rule="evenodd"/><path stroke="#b7b7b7" stroke-width="1.6377952755905512" stroke-linejoin="round" stroke-linecap="butt" d="m620.1821 507.50543l-52.177307 -15.364166l-33.80432 14.315918l-48.417633 15.019379l-61.232758 -14.414551l-17.934875 -11.842957l33.820496 -11.972748l65.88867 -24.5177l45.740173 -20.553284l19.568481 -2.7926025l17.346619 11.264221l7.990906 11.92453l20.813599 5.9686584l27.023865 14.983948l-14.189636 16.784027z" fill-rule="evenodd"/><path fill="#ae7ae2" d="m611.57166 415.97415l39.78711 -22.659302l3.428894 -11.78421l131.71155 -66.32553l33.964233 -15.5633545l17.632935 -0.14468384l7.5390015 -12.407532l-8.429382 -24.619171l-26.405945 5.508087l-98.39642 43.12973l-63.16266 39.31198l-52.124023 23.35318l-21.749634 -0.4081421l-1.4232178 13.606537l14.485046 6.2606506l18.229858 12.603394z" fill-rule="evenodd"/><path fill="#ae7ae2" d="m562.4567 455.7989l-7.213867 0.05532837l-5.0619507 5.140259l0.055358887 7.213867l5.1401978 5.0619507l7.213867 -0.055358887l5.0619507 -5.1402283l-0.05529785 -7.213867z" fill-rule="evenodd"/><path stroke="#ae7ae2" stroke-width="1.6377952755905512" stroke-linejoin="round" stroke-linecap="butt" d="m562.4567 455.7989l-7.213867 0.05532837l-5.0619507 5.140259l0.055358887 7.213867l5.1401978 5.0619507l7.213867 -0.055358887l5.0619507 -5.1402283l-0.05529785 -7.213867z" fill-rule="evenodd"/><path fill="#ae7ae2" d="m637.81 463.46265l45.683716 3.0138245l14.818176 5.9645386l137.03113 -2.2383728l41.158447 6.7137146l15.9262085 -7.568329l12.198242 7.870056l3.1643066 25.823395l-26.156006 6.5731506l-106.32068 -5.585541l-75.0 1.9580688l-57.083496 1.7455139l-19.38562 9.863892l-7.220276 -11.618713l10.298584 -11.957733l10.893494 -19.294098z" fill-rule="evenodd"/></g></svg>