<svg version="1.1" viewBox="0.0 0.0 960.0 960.0" fill="none" stroke="none" stroke-linecap="square" stroke-miterlimit="10" xmlns:xlink="http://www.w3.org/1999/xlink" xmlns="http://www.w3.org/2000/svg"><clipPath id="g3dbaf025c6a_0_25.0"><path d="m0 0l960.0 0l0 960.0l-960.0 0l0 -960.0z" clip-rule="nonzero"/></clipPath><g clip-path="url(#g3dbaf025c6a_0_25.0)"><path fill="#000000" fill-opacity="0.0" d="m0 0l960.0 0l0 960.0l-960.0 0z" fill-rule="evenodd"/><path fill="#b05f81" d="m547.74866 82.17937l-11.060547 -24.585896l7.916443 -13.284897l26.923645 -2.0347176z" fill-rule="evenodd"/><path stroke="#b05f81" stroke-width="2.0" stroke-linejoin="round" stroke-linecap="butt" d="m547.74866 82.17937l-11.060547 -24.585896l7.916443 -13.284897l26.923645 -2.0347176z" fill-rule="evenodd"/><path fill="#b05f81" d="m548.281 82.985405l38.32019 9.110138l12.335999 -20.708466l-26.246765 -29.378052z" fill-rule="evenodd"/><path stroke="#b05f81" stroke-width="2.0" stroke-linejoin="round" stroke-linecap="butt" d="m548.281 82.985405l38.32019 9.110138l12.335999 -20.708466l-26.246765 -29.378052z" fill-rule="evenodd"/><path fill="#b05f81" d="m317.27057 50.299835l8.716278 -21.170576l12.772186 -2.8556957l16.968231 15.427849z" fill-rule="evenodd"/><path stroke="#b05f81" stroke-width="2.0" stroke-linejoin="round" stroke-linecap="butt" d="m317.27057 50.299835l8.716278 -21.170576l12.772186 -2.8556957l16.968231 15.427849z" fill-rule="evenodd"/><path fill="#b05f81" d="m317.0184 52.032833l17.687958 30.671932l18.765839 -4.1785126l3.0107727 -35.280823z" fill-rule="evenodd"/><path stroke="#b05f81" stroke-width="2.0" stroke-linejoin="round" stroke-linecap="butt" d="m317.0184 52.032833l17.687958 30.671932l18.765839 -4.1785126l3.0107727 -35.280823z" fill-rule="evenodd"/><path fill="#b05f81" d="m422.69672 139.8295l-17.862946 1.2200165l-6.415802 -7.9518433l4.9401855 -17.236671z" fill-rule="evenodd"/><path stroke="#b05f81" stroke-width="2.0" stroke-linejoin="round" stroke-linecap="butt" d="m422.69672 139.8295l-17.862946 1.2200165l-6.415802 -7.9518433l4.9401855 -17.236671z" fill-rule="evenodd"/><path fill="#b05f81" d="m423.97916 139.40508l15.362915 -23.018257l-9.434509 -11.6957855l-25.770935 10.115608z" fill-rule="evenodd"/><path stroke="#b05f81" stroke-width="2.0" stroke-linejoin="round" stroke-linecap="butt" d="m423.97916 139.40508l15.362915 -23.018257l-9.434509 -11.6957855l-25.770935 10.115608z" fill-rule="evenodd"/><path fill="#b05f81" d="m793.9051 148.05952l-23.339417 6.945465l-10.864502 -8.631073l1.4165039 -24.361633z" fill-rule="evenodd"/><path stroke="#b05f81" stroke-width="2.0" stroke-linejoin="round" stroke-linecap="butt" d="m793.9051 148.05952l-23.339417 6.945465l-10.864502 -8.631073l1.4165039 -24.361633z" fill-rule="evenodd"/><path fill="#b05f81" d="m795.5435 147.07167l14.309814 -37.286522l-14.918823 -11.820648l-33.060303 22.430008z" fill-rule="evenodd"/><path stroke="#b05f81" stroke-width="2.0" stroke-linejoin="round" stroke-linecap="butt" d="m795.5435 147.07167l14.309814 -37.286522l-14.918823 -11.820648l-33.060303 22.430008z" fill-rule="evenodd"/><path fill="#b05f81" d="m917.2492 189.96992l14.845154 27.85196l-8.11554 15.981125l-31.265076 4.4818726z" fill-rule="evenodd"/><path stroke="#b05f81" stroke-width="2.0" stroke-linejoin="round" stroke-linecap="butt" d="m917.2492 189.96992l14.845154 27.85196l-8.11554 15.981125l-31.265076 4.4818726z" fill-rule="evenodd"/><path fill="#b05f81" d="m916.24884 188.8158l-51.00409 -8.4925995l-11.1571045 21.993088l36.99585 36.10582z" fill-rule="evenodd"/><path stroke="#b05f81" stroke-width="2.0" stroke-linejoin="round" stroke-linecap="butt" d="m916.24884 188.8158l-51.00409 -8.4925995l-11.1571045 21.993088l36.99585 36.10582z" fill-rule="evenodd"/><path fill="#b05f81" d="m854.14667 312.5468l-20.046326 10.68512l-11.497925 -5.842682l-3.227417 -22.51175z" fill-rule="evenodd"/><path stroke="#b05f81" stroke-width="2.0" stroke-linejoin="round" stroke-linecap="butt" d="m854.14667 312.5468l-20.046326 10.68512l-11.497925 -5.842682l-3.227417 -22.51175z" fill-rule="evenodd"/><path fill="#b05f81" d="m855.51184 311.63724l6.545105 -39.35852l-14.381592 -7.2986755l-27.848572 28.546967z" fill-rule="evenodd"/><path stroke="#b05f81" stroke-width="2.0" stroke-linejoin="round" stroke-linecap="butt" d="m855.51184 311.63724l6.545105 -39.35852l-14.381592 -7.2986755l-27.848572 28.546967z" fill-rule="evenodd"/><path fill="#b05f81" d="m913.2599 391.97815l-4.486145 25.138702l-13.1380005 6.100525l-22.123901 -12.782532z" fill-rule="evenodd"/><path stroke="#b05f81" stroke-width="2.0" stroke-linejoin="round" stroke-linecap="butt" d="m913.2599 391.97815l-4.486145 25.138702l-13.1380005 6.100525l-22.123901 -12.782532z" fill-rule="evenodd"/><path fill="#b05f81" d="m913.11456 390.65002l-28.145935 -30.92163l-18.101807 8.39444l5.428833 41.45633z" fill-rule="evenodd"/><path stroke="#b05f81" stroke-width="2.0" stroke-linejoin="round" stroke-linecap="butt" d="m913.11456 390.65002l-28.145935 -30.92163l-18.101807 8.39444l5.428833 41.45633z" fill-rule="evenodd"/><path fill="#b05f81" d="m857.2395 520.90234l-23.70697 4.725342l-9.908936 -9.482178l3.6316528 -23.936066z" fill-rule="evenodd"/><path stroke="#b05f81" stroke-width="2.0" stroke-linejoin="round" stroke-linecap="butt" d="m857.2395 520.90234l-23.70697 4.725342l-9.908936 -9.482178l3.6316528 -23.936066z" fill-rule="evenodd"/><path fill="#b05f81" d="m858.6421 520.75336l17.55304 -35.473694l-13.657288 -13.084137l-34.66742 19.077484z" fill-rule="evenodd"/><path stroke="#b05f81" stroke-width="2.0" stroke-linejoin="round" stroke-linecap="butt" d="m858.6421 520.75336l17.55304 -35.473694l-13.657288 -13.084137l-34.66742 19.077484z" fill-rule="evenodd"/><path fill="#b05f81" d="m74.84815 456.34366l-22.67051 3.1131287l-8.895199 -9.596344l4.794056 -22.398682z" fill-rule="evenodd"/><path stroke="#b05f81" stroke-width="2.0" stroke-linejoin="round" stroke-linecap="butt" d="m74.84815 456.34366l-22.67051 3.1131287l-8.895199 -9.596344l4.794056 -22.398682z" fill-rule="evenodd"/><path fill="#b05f81" d="m76.484436 455.6539l17.58834 -30.706116l-13.066437 -14.115326l-31.98647 15.152161z" fill-rule="evenodd"/><path stroke="#b05f81" stroke-width="2.0" stroke-linejoin="round" stroke-linecap="butt" d="m76.484436 455.6539l17.58834 -30.706116l-13.066437 -14.115326l-31.98647 15.152161z" fill-rule="evenodd"/><path fill="#b05f81" d="m155.22061 533.91736l5.1658936 28.902405l-11.875092 11.92749l-28.975845 -4.9873657z" fill-rule="evenodd"/><path stroke="#b05f81" stroke-width="2.0" stroke-linejoin="round" stroke-linecap="butt" d="m155.22061 533.91736l5.1658936 28.902405l-11.875092 11.92749l-28.975845 -4.9873657z" fill-rule="evenodd"/><path fill="#b05f81" d="m154.69179 532.7243l-40.3235 -20.982819l-17.463234 17.493195l21.093826 40.245544z" fill-rule="evenodd"/><path stroke="#b05f81" stroke-width="2.0" stroke-linejoin="round" stroke-linecap="butt" d="m154.69179 532.7243l-40.3235 -20.982819l-17.463234 17.493195l21.093826 40.245544z" fill-rule="evenodd"/><path fill="#b05f81" d="m87.22735 672.57294l-23.11242 14.318115l-14.342094 -6.1480713l-5.600605 -26.62677z" fill-rule="evenodd"/><path stroke="#b05f81" stroke-width="2.0" stroke-linejoin="round" stroke-linecap="butt" d="m87.22735 672.57294l-23.11242 14.318115l-14.342094 -6.1480713l-5.600605 -26.62677z" fill-rule="evenodd"/><path fill="#b05f81" d="m89.143234 671.90564l4.2924423 -41.90399l-21.057327 -9.073853l-27.455585 31.92273z" fill-rule="evenodd"/><path stroke="#b05f81" stroke-width="2.0" stroke-linejoin="round" stroke-linecap="butt" d="m89.143234 671.90564l4.2924423 -41.90399l-21.057327 -9.073853l-27.455585 31.92273z" fill-rule="evenodd"/><path fill="#b05f81" d="m192.29454 881.11914l4.356903 30.16278l-12.77681 11.98938l-29.910812 -6.183655z" fill-rule="evenodd"/><path stroke="#b05f81" stroke-width="2.0" stroke-linejoin="round" stroke-linecap="butt" d="m192.29454 881.11914l4.356903 30.16278l-12.77681 11.98938l-29.910812 -6.183655z" fill-rule="evenodd"/><path fill="#b05f81" d="m192.4246 879.96387l-41.18657 -23.301392l-18.792221 17.563354l20.482727 42.65143z" fill-rule="evenodd"/><path stroke="#b05f81" stroke-width="2.0" stroke-linejoin="round" stroke-linecap="butt" d="m192.4246 879.96387l-41.18657 -23.301392l-18.792221 17.563354l20.482727 42.65143z" fill-rule="evenodd"/><path fill="#b05f81" d="m472.50333 882.5167l-5.420746 23.61914l-12.938049 5.23407l-20.412842 -13.168213z" fill-rule="evenodd"/><path stroke="#b05f81" stroke-width="2.0" stroke-linejoin="round" stroke-linecap="butt" d="m472.50333 882.5167l-5.420746 23.61914l-12.938049 5.23407l-20.412842 -13.168213z" fill-rule="evenodd"/><path fill="#b05f81" d="m472.46017 880.5924l-23.87613 -29.112915l-18.987915 7.6431274l2.9585266 37.532776z" fill-rule="evenodd"/><path stroke="#b05f81" stroke-width="2.0" stroke-linejoin="round" stroke-linecap="butt" d="m472.46017 880.5924l-23.87613 -29.112915l-18.987915 7.6431274l2.9585266 37.532776z" fill-rule="evenodd"/><path fill="#b05f81" d="m298.16364 828.669l22.754028 -3.765808l9.295074 9.484314l-4.2065735 22.690918z" fill-rule="evenodd"/><path stroke="#b05f81" stroke-width="2.0" stroke-linejoin="round" stroke-linecap="butt" d="m298.16364 828.669l22.754028 -3.765808l9.295074 9.484314l-4.2065735 22.690918z" fill-rule="evenodd"/><path fill="#b05f81" d="m296.51572 829.384l-16.954224 31.550781l13.561981 13.906311l31.927673 -16.197266z" fill-rule="evenodd"/><path stroke="#b05f81" stroke-width="2.0" stroke-linejoin="round" stroke-linecap="butt" d="m296.51572 829.384l-16.954224 31.550781l13.561981 13.906311l31.927673 -16.197266z" fill-rule="evenodd"/><path fill="#e27aa5" d="m334.61417 74.67979l104.168 22.916016l70.832 0l81.24936 -25.0l75.0 0l68.75067 31.249344l66.666626 -16.666672l39.582703 -18.750656l54.16797 0l0 72.91863l-32.194214 58.65355l1.3516846 45.27034l32.926514 83.574814l-33.11548 81.15485l24.782166 75.09448l-14.585327 189.58533l-10.414673 -175.00003l-32.782166 -91.67978l38.614197 -84.15485l-35.829407 -77.90027l-0.67718506 -48.6483l34.50659 -59.451447l0 -39.999992l-24.0 0l-37.0 16.0l-72.0 16.999992l-70.0 -31.999992l-72.0 0l-82.00003 24.0l-74.0 -2.0l-121.0 -39.0l-59.0 6.0l61.0 -17.0z" fill-rule="evenodd"/><path stroke="#e27aa5" stroke-width="2.0" stroke-linejoin="round" stroke-linecap="butt" d="m334.61417 74.67979l104.168 22.916016l70.832 0l81.24936 -25.0l75.0 0l68.75067 31.249344l66.666626 -16.666672l39.582703 -18.750656l54.16797 0l0 72.91863l-32.194214 58.65355l1.3516846 45.27034l32.926514 83.574814l-33.11548 81.15485l24.782166 75.09448l-14.585327 189.58533l-10.414673 -175.00003l-32.782166 -91.67978l38.614197 -84.15485l-35.829407 -77.90027l-0.67718506 -48.6483l34.50659 -59.451447l0 -39.999992l-24.0 0l-37.0 16.0l-72.0 16.999992l-70.0 -31.999992l-72.0 0l-82.00003 24.0l-74.0 -2.0l-121.0 -39.0l-59.0 6.0l61.0 -17.0z" fill-rule="evenodd"/><path fill="#e27aa5" d="m627.6261 887.5767l-104.16797 -22.916016l-70.832 0l-81.24936 25.0l-75.0 0l-68.75064 -31.249329l-66.66667 16.666626l-39.58268 18.750671l-54.167976 0l0 -72.91864l32.19423 -58.653564l-1.3517075 -45.270325l-32.926514 -83.57477l33.115486 -81.15491l-24.78215 -75.09445l14.585304 -189.58533l10.414696 175.0l32.78215 91.67978l-38.614174 84.15491l35.8294 77.90021l0.6771698 48.648315l-34.50657 59.451477l0 40.0l24.0 0l37.000008 -16.0l72.0 -17.0l70.0 32.0l72.0 0l82.0 -24.0l73.99997 2.0l121.0 39.0l59.0 -6.0l-61.0 17.0z" fill-rule="evenodd"/><path stroke="#e27aa5" stroke-width="2.0" stroke-linejoin="round" stroke-linecap="butt" d="m627.6261 887.5767l-104.16797 -22.916016l-70.832 0l-81.24936 25.0l-75.0 0l-68.75064 -31.249329l-66.66667 16.666626l-39.58268 18.750671l-54.167976 0l0 -72.91864l32.19423 -58.653564l-1.3517075 -45.270325l-32.926514 -83.57477l33.115486 -81.15491l-24.78215 -75.09445l14.585304 -189.58533l10.414696 175.0l32.78215 91.67978l-38.614174 84.15491l35.8294 77.90021l0.6771698 48.648315l-34.50657 59.451477l0 40.0l24.0 0l37.000008 -16.0l72.0 -17.0l70.0 32.0l72.0 0l82.0 -24.0l73.99997 2.0l121.0 39.0l59.0 -6.0l-61.0 17.0z" fill-rule="evenodd"/></g></svg>