<svg version="1.1" viewBox="0.0 0.0 960.0 960.0" fill="none" stroke="none" stroke-linecap="square" stroke-miterlimit="10" xmlns:xlink="http://www.w3.org/1999/xlink" xmlns="http://www.w3.org/2000/svg"><clipPath id="g3e4ac51a614_0_0.0"><path d="m0 0l960.0 0l0 960.0l-960.0 0l0 -960.0z" clip-rule="nonzero"/></clipPath><g clip-path="url(#g3e4ac51a614_0_0.0)"><path fill="#000000" fill-opacity="0.0" d="m0 0l960.0 0l0 960.0l-960.0 0z" fill-rule="evenodd"/><path fill="#ffffff" d="m376.53308 451.68478l36.91797 -51.419495l62.465668 -10.254395l51.419525 36.918l10.254395 62.465668l-36.918 51.419464l-62.4657 10.254395l-51.419464 -36.91797z" fill-rule="evenodd"/><path stroke="#ffffff" stroke-width="1.5643044619422573" stroke-linejoin="round" stroke-linecap="butt" d="m376.53308 451.68478l36.91797 -51.419495l62.465668 -10.254395l51.419525 36.918l10.254395 62.465668l-36.918 51.419464l-62.4657 10.254395l-51.419464 -36.91797z" fill-rule="evenodd"/><path fill="#ffffff" d="m367.43542 244.7113l35.383514 -106.596924l67.576904 89.71507l6.381256 162.04387l-63.633026 10.433563z" fill-rule="evenodd"/><path stroke="#ffffff" stroke-width="1.5643044619422573" stroke-linejoin="round" stroke-linecap="butt" d="m367.43542 244.7113l35.383514 -106.596924l67.576904 89.71507l6.381256 162.04387l-63.633026 10.433563z" fill-rule="evenodd"/><path fill="#ffffff" d="m552.435 246.91249l100.384705 -50.371002l-15.660522 111.22127l-110.063416 119.10953l-52.362427 -37.607544z" fill-rule="evenodd"/><path stroke="#ffffff" stroke-width="1.5643044619422573" stroke-linejoin="round" stroke-linecap="butt" d="m552.435 246.91249l100.384705 -50.371002l-15.660522 111.22127l-110.063416 119.10953l-52.362427 -37.607544z" fill-rule="evenodd"/><path fill="#ffffff" d="m360.50778 693.7697l-100.36896 50.37097l15.676239 -111.22125l110.0574 -119.10956l52.342987 37.607544z" fill-rule="evenodd"/><path stroke="#ffffff" stroke-width="1.5643044619422573" stroke-linejoin="round" stroke-linecap="butt" d="m360.50778 693.7697l-100.36896 50.37097l15.676239 -111.22125l110.0574 -119.10956l52.342987 37.607544z" fill-rule="evenodd"/><path fill="#ffffff" d="m233.41615 374.65778l-50.371002 -100.384705l111.22127 15.660492l119.10953 110.063416l-37.607544 52.362457z" fill-rule="evenodd"/><path stroke="#ffffff" stroke-width="1.5643044619422573" stroke-linejoin="round" stroke-linecap="butt" d="m233.41615 374.65778l-50.371002 -100.384705l111.22127 15.660492l119.10953 110.063416l-37.607544 52.362457z" fill-rule="evenodd"/><path fill="#ffffff" d="m231.27393 560.776l-106.58118 -35.35205l89.730804 -67.54538l162.03787 -6.3933105l10.414093 63.594086z" fill-rule="evenodd"/><path stroke="#ffffff" stroke-width="1.5643044619422573" stroke-linejoin="round" stroke-linecap="butt" d="m231.27393 560.776l-106.58118 -35.35205l89.730804 -67.54538l162.03787 -6.3933105l10.414093 63.594086z" fill-rule="evenodd"/><path fill="#ffffff" d="m546.6682 696.4453l-35.35205 106.58118l-67.54538 -89.730835l-6.3933105 -162.03784l63.594116 -10.414124z" fill-rule="evenodd"/><path stroke="#ffffff" stroke-width="1.5643044619422573" stroke-linejoin="round" stroke-linecap="butt" d="m546.6682 696.4453l-35.35205 106.58118l-67.54538 -89.730835l-6.3933105 -162.03784l63.594116 -10.414124z" fill-rule="evenodd"/><path fill="#ffffff" d="m680.61176 567.15485l50.371033 100.36896l-111.22125 -15.6762085l-119.10953 -110.057434l37.607513 -52.342957z" fill-rule="evenodd"/><path stroke="#ffffff" stroke-width="1.5643044619422573" stroke-linejoin="round" stroke-linecap="butt" d="m680.61176 567.15485l50.371033 100.36896l-111.22125 -15.6762085l-119.10953 -110.057434l37.607513 -52.342957z" fill-rule="evenodd"/><path fill="#ffffff" d="m682.3755 380.72427l106.596924 35.35205l-89.71503 67.54538l-162.04388 6.3933105l-10.433594 -63.594116z" fill-rule="evenodd"/><path stroke="#ffffff" stroke-width="1.5643044619422573" stroke-linejoin="round" stroke-linecap="butt" d="m682.3755 380.72427l106.596924 35.35205l-89.71503 67.54538l-162.04388 6.3933105l-10.433594 -63.594116z" fill-rule="evenodd"/></g></svg>