<svg version="1.1" viewBox="0.0 0.0 960.0 960.0" fill="none" stroke="none" stroke-linecap="square" stroke-miterlimit="10" xmlns:xlink="http://www.w3.org/1999/xlink" xmlns="http://www.w3.org/2000/svg"><clipPath id="g3ea68edebb7_0_0.0"><path d="m0 0l960.0 0l0 960.0l-960.0 0l0 -960.0z" clip-rule="nonzero"/></clipPath><g clip-path="url(#g3ea68edebb7_0_0.0)"><path fill="#000000" fill-opacity="0.0" d="m0 0l960.0 0l0 960.0l-960.0 0z" fill-rule="evenodd"/><path fill="#b7b7b7" d="m538.5624 324.65903l63.884888 38.305542l56.009644 32.958344l-132.39789 149.60565l-52.62024 38.358154l-57.05542 15.21637l-10.102325 -57.17926l20.314758 -63.86508z" fill-rule="evenodd"/><path stroke="#b7b7b7" stroke-width="1.141732283464567" stroke-linejoin="round" stroke-linecap="butt" d="m538.5624 324.65903l63.884888 38.305542l56.009644 32.958344l-132.39789 149.60565l-52.62024 38.358154l-57.05542 15.21637l-10.102325 -57.17926l20.314758 -63.86508z" fill-rule="evenodd"/><path fill="#999999" d="m606.79083 333.0437l-17.520386 23.425873l-29.113647 54.12903l-5.1505127 20.40683l7.8933716 10.7873535l19.357056 -3.7098389l55.96045 -59.274323l-9.500122 -12.421387l8.180542 -20.106781l-18.92163 -8.906189z" fill-rule="evenodd"/><path stroke="#999999" stroke-width="1.141732283464567" stroke-linejoin="round" stroke-linecap="butt" d="m606.79083 333.0437l-17.520386 23.425873l-29.113647 54.12903l-5.1505127 20.40683l7.8933716 10.7873535l19.357056 -3.7098389l55.96045 -59.274323l-9.500122 -12.421387l8.180542 -20.106781l-18.92163 -8.906189z" fill-rule="evenodd"/><path fill="#595959" d="m600.95886 329.63306l14.7872925 6.2274475l20.475769 12.259857l10.625793 -18.868927l-19.108032 -11.873627l-18.50647 -8.750275z" fill-rule="evenodd"/><path stroke="#595959" stroke-width="1.141732283464567" stroke-linejoin="round" stroke-linecap="butt" d="m600.95886 329.63306l14.7872925 6.2274475l20.475769 12.259857l10.625793 -18.868927l-19.108032 -11.873627l-18.50647 -8.750275z" fill-rule="evenodd"/><path fill="#e2a57a" d="m612.52313 308.67715l-5.1314087 -13.2586975l18.436401 -28.778992l35.62201 -57.318344l52.554016 -100.696465l21.82367 -31.370186l21.774475 5.536682l20.95404 14.75544l2.1000977 17.723587l-33.243286 56.214104l-21.874695 37.854202l-23.72113 34.969437l-24.280579 42.19925l-13.346619 31.6875l-16.711609 10.236755z" fill-rule="evenodd"/><path stroke="#e2a57a" stroke-width="1.141732283464567" stroke-linejoin="round" stroke-linecap="butt" d="m612.52313 308.67715l-5.1314087 -13.2586975l18.436401 -28.778992l35.62201 -57.318344l52.554016 -100.696465l21.82367 -31.370186l21.774475 5.536682l20.95404 14.75544l2.1000977 17.723587l-33.243286 56.214104l-21.874695 37.854202l-23.72113 34.969437l-24.280579 42.19925l-13.346619 31.6875l-16.711609 10.236755z" fill-rule="evenodd"/><path fill="#000000" fill-opacity="0.0" d="m418.94077 471.951l1.4307251 -30.088684l30.088684 -32.950104" fill-rule="evenodd"/><path stroke="#58cf78" stroke-width="13.293963254593177" stroke-linejoin="round" stroke-linecap="butt" d="m418.94077 471.951l1.4307251 -30.088684l30.088684 -32.950104" fill-rule="evenodd"/><path fill="#000000" fill-opacity="0.0" d="m420.37192 436.131l-22.921997 -51.575592l-47.279114 -10.028107" fill-rule="evenodd"/><path stroke="#58cf78" stroke-width="13.293963254593177" stroke-linejoin="round" stroke-linecap="butt" d="m420.37192 436.131l-22.921997 -51.575592l-47.279114 -10.028107" fill-rule="evenodd"/><path fill="#000000" fill-opacity="0.1727" d="m628.5513 366.10446l-29.840027 21.60907l-20.57965 30.87381l-22.12378 32.928314l-27.785583 46.821075l46.306396 -4.6323853l5.661804 -9.260376l79.034 -89.21918l-23.55011 -13.482758l3.2278442 -3.0402832z" fill-rule="evenodd"/><path fill="#a6836e" d="m198.23915 537.5412l37.866013 -42.070953l58.899323 -44.177765l94.667206 2.1024475l100.97897 33.661133l98.87216 -6.311737l33.65674 61.006104l-151.46408 35.76361l-164.08755 -12.623474z" fill-rule="evenodd"/><path stroke="#a6836e" stroke-width="1.6614173228346456" stroke-linejoin="round" stroke-linecap="butt" d="m198.23915 537.5412l37.866013 -42.070953l58.899323 -44.177765l94.667206 2.1024475l100.97897 33.661133l98.87216 -6.311737l33.65674 61.006104l-151.46408 35.76361l-164.08755 -12.623474z" fill-rule="evenodd"/><path fill="#49200b" d="m143.40552 523.23773l530.7087 0l0 96.53546l-530.7087 0z" fill-rule="evenodd"/><path stroke="#595959" stroke-width="1.6614173228346456" stroke-linejoin="round" stroke-linecap="butt" d="m143.40552 523.23773l530.7087 0l0 96.53546l-530.7087 0z" fill-rule="evenodd"/><path fill="#695046" d="m633.8156 619.784l-67.5354 270.14172l-315.03937 0l-67.53543 -270.14172z" fill-rule="evenodd"/><path stroke="#595959" stroke-width="1.6614173228346456" stroke-linejoin="round" stroke-linecap="butt" d="m633.8156 619.784l-67.5354 270.14172l-315.03937 0l-67.53543 -270.14172z" fill-rule="evenodd"/><path fill="#000000" fill-opacity="0.1727" d="m766.74567 94.841995l-15.109741 46.999924l-77.21948 124.223755l-18.695251 47.283447l-14.363892 11.799072l-8.719543 31.798553l14.359497 -28.723389l18.97882 -10.259308l12.313782 -31.798553l25.64386 -44.11232l23.083374 -34.367737l24.10846 -42.06221l20.003906 -33.853027l10.259277 -17.949402l-2.5648193 -15.903641l-20.518616 -14.874222z" fill-rule="evenodd"/></g></svg>