<svg version="1.1" viewBox="0.0 0.0 960.0 960.0" fill="none" stroke="none" stroke-linecap="square" stroke-miterlimit="10" xmlns:xlink="http://www.w3.org/1999/xlink" xmlns="http://www.w3.org/2000/svg"><clipPath id="g3ea68edebb7_0_56.0"><path d="m0 0l960.0 0l0 960.0l-960.0 0l0 -960.0z" clip-rule="nonzero"/></clipPath><g clip-path="url(#g3ea68edebb7_0_56.0)"><path fill="#000000" fill-opacity="0.0" d="m0 0l960.0 0l0 960.0l-960.0 0z" fill-rule="evenodd"/><path fill="#695046" d="m498.21902 459.0846l28.284454 -26.793121l35.728455 8.931061l-25.310303 20.840515l-32.75003 14.887909z" fill-rule="evenodd"/><path stroke="#695046" stroke-width="13.0997375328084" stroke-linejoin="round" stroke-linecap="butt" d="m498.21902 459.0846l28.284454 -26.793121l35.728455 8.931061l-25.310303 20.840515l-32.75003 14.887909z" fill-rule="evenodd"/><path fill="#000000" fill-opacity="0.0" d="m428.03452 323.4905l62.611816 77.05707l14.445221 178.19955" fill-rule="evenodd"/><path stroke="#695046" stroke-width="13.0997375328084" stroke-linejoin="round" stroke-linecap="butt" d="m428.03452 323.4905l62.611816 77.05707l14.445221 178.19955" fill-rule="evenodd"/><path fill="#a6836e" d="m588.8706 545.2444l-89.05676 8.617249l-54.583344 -54.583313l-48.84134 57.454346l40.219757 129.27655l48.837036 31.602417l63.204926 -37.34442l54.583313 -34.477783z" fill-rule="evenodd"/><path stroke="#a6836e" stroke-width="1.6377952755905512" stroke-linejoin="round" stroke-linecap="butt" d="m588.8706 545.2444l-89.05676 8.617249l-54.583344 -54.583313l-48.84134 57.454346l40.219757 129.27655l48.837036 31.602417l63.204926 -37.34442l54.583313 -34.477783z" fill-rule="evenodd"/><path fill="#88e396" d="m253.6397 544.2643l-119.44295 19.267517l-65.50001 36.60089l25.043869 57.793884l202.28067 50.087708l335.20615 17.342041l213.8377 -71.2807l46.236816 -53.942932l-55.829712 -21.99237l-124.54022 0l-187.96869 28.830322l-164.90186 -18.450867z" fill-rule="evenodd"/><path fill="#a6836e" d="m322.99008 525.00116l82.83774 61.64911l167.60522 1.925415l113.66223 -48.16223l78.982544 17.337708l73.206116 21.192932l-146.4123 26.96936l-211.90793 23.118408l-211.9123 -26.973633l-23.118393 -55.864136z" fill-rule="evenodd"/><path stroke="#a6836e" stroke-width="1.6377952755905512" stroke-linejoin="round" stroke-linecap="butt" d="m322.99008 525.00116l82.83774 61.64911l167.60522 1.925415l113.66223 -48.16223l78.982544 17.337708l73.206116 21.192932l-146.4123 26.96936l-211.90793 23.118408l-211.9123 -26.973633l-23.118393 -55.864136z" fill-rule="evenodd"/><path fill="#ff9ab7" d="m455.027 313.5326l9.573822 -24.388306l-20.856323 -7.138336l-22.463745 19.976562l6.972992 19.484528z" fill-rule="evenodd"/><path stroke="#ff9ab7" stroke-width="1.1916010498687664" stroke-linejoin="round" stroke-linecap="butt" d="m455.027 313.5326l9.573822 -24.388306l-20.856323 -7.138336l-22.463745 19.976562l6.972992 19.484528z" fill-rule="evenodd"/><path fill="#ff9ab7" d="m374.2941 351.71826l4.780365 23.28778l23.071655 -8.384857l9.478729 -28.46988l-17.213501 -9.21051z" fill-rule="evenodd"/><path stroke="#ff9ab7" stroke-width="1.1916010498687664" stroke-linejoin="round" stroke-linecap="butt" d="m374.2941 351.71826l4.780365 23.28778l23.071655 -8.384857l9.478729 -28.46988l-17.213501 -9.21051z" fill-rule="evenodd"/><path fill="#ff9ab7" d="m422.49466 362.2026l23.240082 -1.7971497l3.5808716 -25.124542l-21.027008 -13.730652l-16.576263 16.638489z" fill-rule="evenodd"/><path stroke="#ff9ab7" stroke-width="1.1916010498687664" stroke-linejoin="round" stroke-linecap="butt" d="m422.49466 362.2026l23.240082 -1.7971497l3.5808716 -25.124542l-21.027008 -13.730652l-16.576263 16.638489z" fill-rule="evenodd"/><path fill="#ff9ab7" d="m377.03378 296.66553l-20.284393 16.192566l10.689972 19.936646l26.891205 -3.8710022l5.929657 -22.329071z" fill-rule="evenodd"/><path stroke="#ff9ab7" stroke-width="1.1916010498687664" stroke-linejoin="round" stroke-linecap="butt" d="m377.03378 296.66553l-20.284393 16.192566l10.689972 19.936646l26.891205 -3.8710022l5.929657 -22.329071z" fill-rule="evenodd"/><path fill="#ff9ab7" d="m393.0109 280.62708l16.477173 -20.709045l17.318878 13.292847l-5.773529 28.9245l-20.887085 4.5834656z" fill-rule="evenodd"/><path stroke="#ff9ab7" stroke-width="1.1916010498687664" stroke-linejoin="round" stroke-linecap="butt" d="m393.0109 280.62708l16.477173 -20.709045l17.318878 13.292847l-5.773529 28.9245l-20.887085 4.5834656z" fill-rule="evenodd"/><path fill="#e27aa5" d="m421.3319 301.87943l-21.018127 4.6250916l-5.976349 22.472534l17.324524 9.263672l16.683502 -16.747253z" fill-rule="evenodd"/><path stroke="#e27aa5" stroke-width="1.1916010498687664" stroke-linejoin="round" stroke-linecap="butt" d="m421.3319 301.87943l-21.018127 4.6250916l-5.976349 22.472534l17.324524 9.263672l16.683502 -16.747253z" fill-rule="evenodd"/></g></svg>