<svg version="1.1" viewBox="0.0 0.0 960.0 960.0" fill="none" stroke="none" stroke-linecap="square" stroke-miterlimit="10" xmlns:xlink="http://www.w3.org/1999/xlink" xmlns="http://www.w3.org/2000/svg"><clipPath id="g3ea68edebb7_0_102.0"><path d="m0 0l960.0 0l0 960.0l-960.0 0l0 -960.0z" clip-rule="nonzero"/></clipPath><g clip-path="url(#g3ea68edebb7_0_102.0)"><path fill="#000000" fill-opacity="0.0" d="m0 0l960.0 0l0 960.0l-960.0 0z" fill-rule="evenodd"/><path fill="#000000" fill-opacity="0.0" d="m723.86896 518.43854l-29.18274 -29.990753l-27.562439 4.0529175l-15.399353 17.023987" fill-rule="evenodd"/><path stroke="#01a582" stroke-width="9.758530183727034" stroke-linejoin="round" stroke-linecap="butt" d="m723.86896 518.43854l-29.18274 -29.990753l-27.562439 4.0529175l-15.399353 17.023987" fill-rule="evenodd"/><path fill="#695046" d="m498.2142 459.08542l28.284515 -26.793121l35.728455 8.931061l-25.310364 20.840515l-32.75 14.887909z" fill-rule="evenodd"/><path stroke="#695046" stroke-width="13.0997375328084" stroke-linejoin="round" stroke-linecap="butt" d="m498.2142 459.08542l28.284515 -26.793121l35.728455 8.931061l-25.310364 20.840515l-32.75 14.887909z" fill-rule="evenodd"/><path fill="#000000" fill-opacity="0.0" d="m603.08575 527.35645l19.456604 -24.317505l30.80304 8.105835l11.350769 53.500244" fill-rule="evenodd"/><path stroke="#01a582" stroke-width="9.758530183727034" stroke-linejoin="round" stroke-linecap="butt" d="m603.08575 527.35645l19.456604 -24.317505l30.80304 8.105835l11.350769 53.500244" fill-rule="evenodd"/><path fill="#000000" fill-opacity="0.0" d="m428.03052 323.49268l62.611816 77.05704l14.445251 178.19955" fill-rule="evenodd"/><path stroke="#695046" stroke-width="13.0997375328084" stroke-linejoin="round" stroke-linecap="butt" d="m428.03052 323.49268l62.611816 77.05704l14.445251 178.19955" fill-rule="evenodd"/><path fill="#a6836e" d="m693.651 554.6433l-191.55743 -7.7233276l-74.14737 16.993896l-114.31555 -26.264526l122.97583 148.35925l48.837036 31.602478l63.204926 -37.344482l54.583313 -34.477722z" fill-rule="evenodd"/><path stroke="#a6836e" stroke-width="1.6377952755905512" stroke-linejoin="round" stroke-linecap="butt" d="m693.651 554.6433l-191.55743 -7.7233276l-74.14737 16.993896l-114.31555 -26.264526l122.97583 148.35925l48.837036 31.602478l63.204926 -37.344482l54.583313 -34.477722z" fill-rule="evenodd"/><path fill="#000000" fill-opacity="0.0" d="m319.1793 551.9244l-11.509674 -34.522583l-32.220642 -16.110321" fill-rule="evenodd"/><path stroke="#01a582" stroke-width="9.758530183727034" stroke-linejoin="round" stroke-linecap="butt" d="m319.1793 551.9244l-11.509674 -34.522583l-32.220642 -16.110321" fill-rule="evenodd"/><path fill="#000000" fill-opacity="0.0" d="m319.17584 549.4562l11.509674 -39.12326l28.766144 -21.86676" fill-rule="evenodd"/><path stroke="#01a582" stroke-width="9.758530183727034" stroke-linejoin="round" stroke-linecap="butt" d="m319.17584 549.4562l11.509674 -39.12326l28.766144 -21.86676" fill-rule="evenodd"/><path fill="#88e396" d="m253.63979 544.26373l-119.44295 19.267517l-65.49999 36.60089l25.043861 57.793884l202.28069 50.087708l335.20615 17.342041l213.8377 -71.2807l46.236816 -53.942932l-55.829712 -21.99237l-124.54028 0l-187.96863 28.830322l-164.90186 -18.450867z" fill-rule="evenodd"/><path fill="#a6836e" d="m322.98816 525.00085l82.83774 61.64911l167.6052 1.925415l113.66229 -48.16223l78.98248 17.337708l73.20618 21.192932l-146.4123 26.96936l-211.90796 23.118408l-211.9123 -26.973633l-23.118393 -55.864136z" fill-rule="evenodd"/><path stroke="#a6836e" stroke-width="1.6377952755905512" stroke-linejoin="round" stroke-linecap="butt" d="m322.98816 525.00085l82.83774 61.64911l167.6052 1.925415l113.66229 -48.16223l78.98248 17.337708l73.20618 21.192932l-146.4123 26.96936l-211.90796 23.118408l-211.9123 -26.973633l-23.118393 -55.864136z" fill-rule="evenodd"/><path fill="#7ad9e2" d="m280.053 506.87848l-6.905792 -23.01294l-20.714188 1.1493835l-10.357086 23.016113l18.412247 12.655853z" fill-rule="evenodd"/><path stroke="#7ad9e2" stroke-width="9.758530183727034" stroke-linejoin="round" stroke-linecap="butt" d="m280.053 506.87848l-6.905792 -23.01294l-20.714188 1.1493835l-10.357086 23.016113l18.412247 12.655853z" fill-rule="evenodd"/><path fill="#000000" fill-opacity="0.0" d="m320.44748 526.4926l-1.2721558 -24.214386l-26.466492 19.559723l-4.6030273 20.715881" fill-rule="evenodd"/><path stroke="#01a582" stroke-width="9.758530183727034" stroke-linejoin="round" stroke-linecap="butt" d="m320.44748 526.4926l-1.2721558 -24.214386l-26.466492 19.559723l-4.6030273 20.715881" fill-rule="evenodd"/><path fill="#7ad9e2" d="m353.69824 472.3563l8.055145 24.165497l29.921936 0l0 -17.259705l-8.055176 -24.165466l-27.619995 0z" fill-rule="evenodd"/><path stroke="#7ad9e2" stroke-width="9.758530183727034" stroke-linejoin="round" stroke-linecap="butt" d="m353.69824 472.3563l8.055145 24.165497l29.921936 0l0 -17.259705l-8.055176 -24.165466l-27.619995 0z" fill-rule="evenodd"/><path fill="#e5faff" d="m274.2965 540.2509l28.769379 1.149353l5.7532043 32.220642l-34.522583 16.11029l-19.561615 -24.165466z" fill-rule="evenodd"/><path stroke="#e5faff" stroke-width="9.758530183727034" stroke-linejoin="round" stroke-linecap="butt" d="m274.2965 540.2509l28.769379 1.149353l5.7532043 32.220642l-34.522583 16.11029l-19.561615 -24.165466z" fill-rule="evenodd"/><path fill="#7ad9e2" d="m593.9059 553.8785l41.350098 -4.1345825l-31.357422 -27.25299l-26.530945 14.849243l-5.7893066 11.578552z" fill-rule="evenodd"/><path stroke="#7ad9e2" stroke-width="9.758530183727034" stroke-linejoin="round" stroke-linecap="butt" d="m593.9059 553.8785l41.350098 -4.1345825l-31.357422 -27.25299l-26.530945 14.849243l-5.7893066 11.578552z" fill-rule="evenodd"/><path fill="#7ad9e2" d="m689.83765 550.5692l9.098633 -28.116882l33.85028 -7.254822l12.463928 24.62268l-4.1345825 17.367798l-36.39032 0z" fill-rule="evenodd"/><path stroke="#7ad9e2" stroke-width="9.758530183727034" stroke-linejoin="round" stroke-linecap="butt" d="m689.83765 550.5692l9.098633 -28.116882l33.85028 -7.254822l12.463928 24.62268l-4.1345825 17.367798l-36.39032 0z" fill-rule="evenodd"/><path fill="#ff9ab7" d="m452.7729 314.19772l9.573822 -24.388306l-20.856354 -7.1383667l-22.463715 19.976593l6.9729614 19.484528z" fill-rule="evenodd"/><path stroke="#ff9ab7" stroke-width="1.1916010498687664" stroke-linejoin="round" stroke-linecap="butt" d="m452.7729 314.19772l9.573822 -24.388306l-20.856354 -7.1383667l-22.463715 19.976593l6.9729614 19.484528z" fill-rule="evenodd"/><path fill="#ff9ab7" d="m372.03998 352.3834l4.780365 23.28775l23.071655 -8.384827l9.478699 -28.46991l-17.21347 -9.21048z" fill-rule="evenodd"/><path stroke="#ff9ab7" stroke-width="1.1916010498687664" stroke-linejoin="round" stroke-linecap="butt" d="m372.03998 352.3834l4.780365 23.28775l23.071655 -8.384827l9.478699 -28.46991l-17.21347 -9.21048z" fill-rule="evenodd"/><path fill="#ff9ab7" d="m420.2405 362.8677l23.240112 -1.7971191l3.580841 -25.124542l-21.026978 -13.730652l-16.576263 16.638489z" fill-rule="evenodd"/><path stroke="#ff9ab7" stroke-width="1.1916010498687664" stroke-linejoin="round" stroke-linecap="butt" d="m420.2405 362.8677l23.240112 -1.7971191l3.580841 -25.124542l-21.026978 -13.730652l-16.576263 16.638489z" fill-rule="evenodd"/><path fill="#ff9ab7" d="m374.77966 297.33066l-20.284424 16.192535l10.690002 19.936676l26.891174 -3.8710022l5.9296875 -22.329071z" fill-rule="evenodd"/><path stroke="#ff9ab7" stroke-width="1.1916010498687664" stroke-linejoin="round" stroke-linecap="butt" d="m374.77966 297.33066l-20.284424 16.192535l10.690002 19.936676l26.891174 -3.8710022l5.9296875 -22.329071z" fill-rule="evenodd"/><path fill="#ff9ab7" d="m390.75677 281.2922l16.477173 -20.709045l17.318848 13.292847l-5.7734985 28.9245l-20.887085 4.583435z" fill-rule="evenodd"/><path stroke="#ff9ab7" stroke-width="1.1916010498687664" stroke-linejoin="round" stroke-linecap="butt" d="m390.75677 281.2922l16.477173 -20.709045l17.318848 13.292847l-5.7734985 28.9245l-20.887085 4.583435z" fill-rule="evenodd"/><path fill="#e27aa5" d="m419.07776 302.54453l-21.018097 4.625122l-5.976349 22.472534l17.324524 9.263672l16.683502 -16.747253z" fill-rule="evenodd"/><path stroke="#e27aa5" stroke-width="1.1916010498687664" stroke-linejoin="round" stroke-linecap="butt" d="m419.07776 302.54453l-21.018097 4.625122l-5.976349 22.472534l17.324524 9.263672l16.683502 -16.747253z" fill-rule="evenodd"/></g></svg>