<svg version="1.1" viewBox="0.0 0.0 960.0 960.0" fill="none" stroke="none" stroke-linecap="square" stroke-miterlimit="10" xmlns:xlink="http://www.w3.org/1999/xlink" xmlns="http://www.w3.org/2000/svg"><clipPath id="g3e4ac51a614_0_18.0"><path d="m0 0l960.0 0l0 960.0l-960.0 0l0 -960.0z" clip-rule="nonzero"/></clipPath><g clip-path="url(#g3e4ac51a614_0_18.0)"><path fill="#000000" fill-opacity="0.0" d="m0 0l960.0 0l0 960.0l-960.0 0z" fill-rule="evenodd"/><path fill="#ffffff" d="m480.00525 80.08924l379.02362 379.02362l-379.02362 379.02362l-379.02362 -379.02362zm0 82.119255l-296.90436 296.90436l296.90436 296.90436l296.90436 -296.90436z" fill-rule="evenodd"/><path stroke="#ffffff" stroke-width="1.0" stroke-linejoin="round" stroke-linecap="butt" d="m480.00525 80.08924l379.02362 379.02362l-379.02362 379.02362l-379.02362 -379.02362zm0 82.119255l-296.90436 296.90436l296.90436 296.90436l296.90436 -296.90436z" fill-rule="evenodd"/><path fill="#ffffff" d="m247.45145 236.41208l465.1024 0l0 445.38583l-465.1024 0zm48.248657 48.248627l0 348.88855l368.60507 0l0 -348.88855z" fill-rule="evenodd"/><path stroke="#ffffff" stroke-width="1.0" stroke-linejoin="round" stroke-linecap="butt" d="m247.45145 236.41208l465.1024 0l0 445.38583l-465.1024 0zm48.248657 48.248627l0 348.88855l368.60507 0l0 -348.88855z" fill-rule="evenodd"/><path fill="#ffffff" d="m330.91873 99.19684l509.00784 210.83466l-210.8346 509.00787l-509.0079 -210.83466zm32.301086 77.980545l-165.1552 398.72626l398.7262 165.15521l165.15521 -398.72626z" fill-rule="evenodd"/><path stroke="#ffffff" stroke-width="1.0" stroke-linejoin="round" stroke-linecap="butt" d="m330.91873 99.19684l509.00784 210.83466l-210.8346 509.00787l-509.0079 -210.83466zm32.301086 77.980545l-165.1552 398.72626l398.7262 165.15521l165.15521 -398.72626z" fill-rule="evenodd"/><path fill="#ffffff" d="m480.00525 322.68765l118.1889 68.19977l0 136.4509l-118.1889 68.19977l-118.188934 -68.19977l0 -136.4509z" fill-rule="evenodd"/><path stroke="#ffffff" stroke-width="1.0" stroke-linejoin="round" stroke-linecap="butt" d="m480.00525 322.68765l118.1889 68.19977l0 136.4509l-118.1889 68.19977l-118.188934 -68.19977l0 -136.4509z" fill-rule="evenodd"/><path fill="#ffffff" d="m199.32283 178.43787l561.3544 0l0 561.3543l-561.3544 0zm60.81151 60.811523l0 439.73132l439.73132 0l0 -439.73132z" fill-rule="evenodd"/><path stroke="#ffffff" stroke-width="1.0" stroke-linejoin="round" stroke-linecap="butt" d="m199.32283 178.43787l561.3544 0l0 561.3543l-561.3544 0zm60.81151 60.811523l0 439.73132l439.73132 0l0 -439.73132z" fill-rule="evenodd"/><path fill="#ffffff" d="m629.1141 99.17049l210.89764 509.03937l-509.03937 210.89764l-210.89764 -509.03937zm-32.29767 77.99078l-398.75092 165.20454l165.20456 398.7509l398.7509 -165.20453z" fill-rule="evenodd"/><path stroke="#ffffff" stroke-width="1.0" stroke-linejoin="round" stroke-linecap="butt" d="m629.1141 99.17049l210.89764 509.03937l-509.03937 210.89764l-210.89764 -509.03937zm-32.29767 77.99078l-398.75092 165.20454l165.20456 398.7509l398.7509 -165.20453z" fill-rule="evenodd"/></g></svg>