<svg version="1.1" viewBox="0.0 0.0 960.0 960.0" fill="none" stroke="none" stroke-linecap="square" stroke-miterlimit="10" xmlns:xlink="http://www.w3.org/1999/xlink" xmlns="http://www.w3.org/2000/svg"><clipPath id="g3ea68edebb7_0_127.0"><path d="m0 0l960.0 0l0 960.0l-960.0 0l0 -960.0z" clip-rule="nonzero"/></clipPath><g clip-path="url(#g3ea68edebb7_0_127.0)"><path fill="#000000" fill-opacity="0.0" d="m0 0l960.0 0l0 960.0l-960.0 0z" fill-rule="evenodd"/><path fill="#000000" fill-opacity="0.0" d="m723.8763 452.93893l-29.18274 -29.990753l-27.562439 4.0529175l-15.399414 17.023987" fill-rule="evenodd"/><path stroke="#01a582" stroke-width="9.761154855643044" stroke-linejoin="round" stroke-linecap="butt" d="m723.8763 452.93893l-29.18274 -29.990753l-27.562439 4.0529175l-15.399414 17.023987" fill-rule="evenodd"/><path fill="#695046" d="m499.54764 441.2401l28.284515 -26.793121l35.728394 8.93103l-25.310303 20.840515l-32.75 14.887939z" fill-rule="evenodd"/><path stroke="#695046" stroke-width="13.0997375328084" stroke-linejoin="round" stroke-linecap="butt" d="m499.54764 441.2401l28.284515 -26.793121l35.728394 8.93103l-25.310303 20.840515l-32.75 14.887939z" fill-rule="evenodd"/><path fill="#000000" fill-opacity="0.0" d="m603.09247 461.85696l19.456604 -24.317535l30.80304 8.1058655l11.350769 53.500244" fill-rule="evenodd"/><path stroke="#01a582" stroke-width="9.761154855643044" stroke-linejoin="round" stroke-linecap="butt" d="m603.09247 461.85696l19.456604 -24.317535l30.80304 8.1058655l11.350769 53.500244" fill-rule="evenodd"/><path fill="#000000" fill-opacity="0.0" d="m442.72952 392.12396l50.130707 -14.97818l12.231812 136.1016" fill-rule="evenodd"/><path stroke="#695046" stroke-width="13.0997375328084" stroke-linejoin="round" stroke-linecap="butt" d="m442.72952 392.12396l50.130707 -14.97818l12.231812 136.1016" fill-rule="evenodd"/><path fill="#a6836e" d="m693.65405 489.14407l-191.5574 -7.7233276l-74.14737 16.993896l-114.31555 -26.264465l122.97583 148.35922l48.837036 31.602478l63.204895 -37.344482l54.583374 -34.477722z" fill-rule="evenodd"/><path stroke="#a6836e" stroke-width="1.6377952755905512" stroke-linejoin="round" stroke-linecap="butt" d="m693.65405 489.14407l-191.5574 -7.7233276l-74.14737 16.993896l-114.31555 -26.264465l122.97583 148.35922l48.837036 31.602478l63.204895 -37.344482l54.583374 -34.477722z" fill-rule="evenodd"/><path fill="#e27aa5" d="m485.2638 381.3765l9.640106 -24.55188l-20.99759 -7.186737l-22.61731 20.11023l7.0193176 19.61554z" fill-rule="evenodd"/><path stroke="#e27aa5" stroke-width="1.1994750656167978" stroke-linejoin="round" stroke-linecap="butt" d="m485.2638 381.3765l9.640106 -24.55188l-20.99759 -7.186737l-22.61731 20.11023l7.0193176 19.61554z" fill-rule="evenodd"/><path fill="#e27aa5" d="m403.98068 419.81686l4.811615 23.444244l23.22876 -8.440674l9.544556 -28.660858l-17.329895 -9.272736z" fill-rule="evenodd"/><path stroke="#e27aa5" stroke-width="1.1994750656167978" stroke-linejoin="round" stroke-linecap="butt" d="m403.98068 419.81686l4.811615 23.444244l23.22876 -8.440674l9.544556 -28.660858l-17.329895 -9.272736z" fill-rule="evenodd"/><path fill="#e27aa5" d="m452.508 430.37262l23.39798 -1.8087158l3.6064758 -25.293152l-21.169037 -13.823334l-16.689697 16.749878z" fill-rule="evenodd"/><path stroke="#e27aa5" stroke-width="1.1994750656167978" stroke-linejoin="round" stroke-linecap="butt" d="m452.508 430.37262l23.39798 -1.8087158l3.6064758 -25.293152l-21.169037 -13.823334l-16.689697 16.749878z" fill-rule="evenodd"/><path fill="#e27aa5" d="m406.74185 364.3945l-20.422974 16.300842l10.761536 20.07077l27.073975 -3.8964233l5.9711 -22.478882z" fill-rule="evenodd"/><path stroke="#e27aa5" stroke-width="1.1994750656167978" stroke-linejoin="round" stroke-linecap="butt" d="m406.74185 364.3945l-20.422974 16.300842l10.761536 20.07077l27.073975 -3.8964233l5.9711 -22.478882z" fill-rule="evenodd"/><path fill="#e27aa5" d="m422.8283 348.2487l16.590118 -20.847778l17.43576 13.382507l-5.814209 29.118591l-21.029175 4.6138z" fill-rule="evenodd"/><path stroke="#e27aa5" stroke-width="1.1994750656167978" stroke-linejoin="round" stroke-linecap="butt" d="m422.8283 348.2487l16.590118 -20.847778l17.43576 13.382507l-5.814209 29.118591l-21.029175 4.6138z" fill-rule="evenodd"/><path fill="#b05f81" d="m451.34048 369.64432l-21.161072 4.655731l-6.018097 22.623291l17.44168 9.326263l16.797638 -16.859344z" fill-rule="evenodd"/><path stroke="#b05f81" stroke-width="1.1994750656167978" stroke-linejoin="round" stroke-linecap="butt" d="m451.34048 369.64432l-21.161072 4.655731l-6.018097 22.623291l17.44168 9.326263l16.797638 -16.859344z" fill-rule="evenodd"/><path fill="#000000" fill-opacity="0.0" d="m319.1819 486.42487l-11.509674 -34.522583l-32.220642 -16.110321" fill-rule="evenodd"/><path stroke="#01a582" stroke-width="9.761154855643044" stroke-linejoin="round" stroke-linecap="butt" d="m319.1819 486.42487l-11.509674 -34.522583l-32.220642 -16.110321" fill-rule="evenodd"/><path fill="#000000" fill-opacity="0.0" d="m319.179 483.95654l11.509674 -39.12326l28.766144 -21.86676" fill-rule="evenodd"/><path stroke="#01a582" stroke-width="9.761154855643044" stroke-linejoin="round" stroke-linecap="butt" d="m319.179 483.95654l11.509674 -39.12326l28.766144 -21.86676" fill-rule="evenodd"/><path fill="#88e396" d="m253.6398 478.7646l-119.44295 19.267487l-65.5 36.60092l25.043861 57.793884l202.28067 50.087708l335.20615 17.342041l213.8377 -71.2807l46.236816 -53.942932l-55.829712 -21.99237l-124.54028 0l-187.96863 28.830322l-164.90186 -18.450867z" fill-rule="evenodd"/><path fill="#a6836e" d="m322.9904 459.50156l82.83774 61.64908l167.60522 1.9254761l113.66223 -48.162292l78.982544 17.337738l73.206116 21.192963l-146.4123 26.9693l-211.90793 23.118408l-211.9123 -26.973633l-23.118393 -55.864105z" fill-rule="evenodd"/><path stroke="#a6836e" stroke-width="1.6377952755905512" stroke-linejoin="round" stroke-linecap="butt" d="m322.9904 459.50156l82.83774 61.64908l167.60522 1.9254761l113.66223 -48.162292l78.982544 17.337738l73.206116 21.192963l-146.4123 26.9693l-211.90793 23.118408l-211.9123 -26.973633l-23.118393 -55.864105z" fill-rule="evenodd"/><path fill="#7b3cbe" d="m280.0552 441.3788l-6.905792 -23.012909l-20.714203 1.149353l-10.357086 23.016113l18.412262 12.655823z" fill-rule="evenodd"/><path stroke="#7b3cbe" stroke-width="9.761154855643044" stroke-linejoin="round" stroke-linecap="butt" d="m280.0552 441.3788l-6.905792 -23.012909l-20.714203 1.149353l-10.357086 23.016113l18.412262 12.655823z" fill-rule="evenodd"/><path fill="#000000" fill-opacity="0.0" d="m320.45026 460.9931l-1.2721863 -24.214386l-26.466461 19.559753l-4.603058 20.715881" fill-rule="evenodd"/><path stroke="#01a582" stroke-width="9.761154855643044" stroke-linejoin="round" stroke-linecap="butt" d="m320.45026 460.9931l-1.2721863 -24.214386l-26.466461 19.559753l-4.603058 20.715881" fill-rule="evenodd"/><path fill="#7b3cbe" d="m353.7018 406.8564l8.055145 24.165466l29.921936 0l0 -17.259674l-8.055176 -24.165497l-27.619995 0z" fill-rule="evenodd"/><path stroke="#7b3cbe" stroke-width="9.761154855643044" stroke-linejoin="round" stroke-linecap="butt" d="m353.7018 406.8564l8.055145 24.165466l29.921936 0l0 -17.259674l-8.055176 -24.165497l-27.619995 0z" fill-rule="evenodd"/><path fill="#ae7ae2" d="m274.29886 474.7517l28.769348 1.149353l5.753235 32.220673l-34.522583 16.110321l-19.56163 -24.165497z" fill-rule="evenodd"/><path stroke="#ae7ae2" stroke-width="9.761154855643044" stroke-linejoin="round" stroke-linecap="butt" d="m274.29886 474.7517l28.769348 1.149353l5.753235 32.220673l-34.522583 16.110321l-19.56163 -24.165497z" fill-rule="evenodd"/><path fill="#7b3cbe" d="m593.91223 488.37915l41.350098 -4.134552l-31.357483 -27.25299l-26.530945 14.849243l-5.7893066 11.578522z" fill-rule="evenodd"/><path stroke="#7b3cbe" stroke-width="9.761154855643044" stroke-linejoin="round" stroke-linecap="butt" d="m593.91223 488.37915l41.350098 -4.134552l-31.357483 -27.25299l-26.530945 14.849243l-5.7893066 11.578522z" fill-rule="evenodd"/><path fill="#7b3cbe" d="m689.8454 485.06982l9.098694 -28.116852l33.85022 -7.2548523l12.463928 24.62265l-4.1345825 17.367828l-36.39032 0z" fill-rule="evenodd"/><path stroke="#7b3cbe" stroke-width="9.761154855643044" stroke-linejoin="round" stroke-linecap="butt" d="m689.8454 485.06982l9.098694 -28.116852l33.85022 -7.2548523l12.463928 24.62265l-4.1345825 17.367828l-36.39032 0z" fill-rule="evenodd"/></g></svg>