<svg version="1.1" viewBox="0.0 0.0 960.0 960.0" fill="none" stroke="none" stroke-linecap="square" stroke-miterlimit="10" xmlns:xlink="http://www.w3.org/1999/xlink" xmlns="http://www.w3.org/2000/svg"><clipPath id="g3d3065819eb_0_230.0"><path d="m0 0l960.0 0l0 960.0l-960.0 0l0 -960.0z" clip-rule="nonzero"/></clipPath><g clip-path="url(#g3d3065819eb_0_230.0)"><path fill="#000000" fill-opacity="0.0" d="m0 0l960.0 0l0 960.0l-960.0 0z" fill-rule="evenodd"/><path fill="#58cf78" d="m69.79662 840.5358l-69.6693 -34.236206l0 -104.031555l69.6693 -34.236206z" fill-rule="evenodd"/><path stroke="#58cf78" stroke-width="4.677165354330708" stroke-miterlimit="8.0" stroke-linecap="butt" d="m69.79662 840.5358l-69.6693 -34.236206l0 -104.031555l69.6693 -34.236206z" fill-rule="evenodd"/><path fill="#58cf78" d="m134.25095 905.2062l-58.991737 -95.08661l-73.13425 0l58.991734 95.08661z" fill-rule="evenodd"/><path stroke="#58cf78" stroke-width="4.677165354330708" stroke-miterlimit="8.0" stroke-linecap="butt" d="m134.25095 905.2062l-58.991737 -95.08661l-73.13425 0l58.991734 95.08661z" fill-rule="evenodd"/><path fill="#58cf78" d="m890.458 840.5358l69.66931 -34.236206l0 -104.031555l-69.66931 -34.236206z" fill-rule="evenodd"/><path stroke="#58cf78" stroke-width="4.677165354330708" stroke-miterlimit="8.0" stroke-linecap="butt" d="m890.458 840.5358l69.66931 -34.236206l0 -104.031555l-69.66931 -34.236206z" fill-rule="evenodd"/><path fill="#88e396" d="m74.50107 567.5894l811.74805 0l0 270.45673l-811.74805 0z" fill-rule="evenodd"/><path stroke="#88e396" stroke-width="4.677165354330708" stroke-miterlimit="8.0" stroke-linecap="butt" d="m74.50107 567.5894l811.74805 0l0 270.45673l-811.74805 0z" fill-rule="evenodd"/><path fill="#88e396" d="m74.59641 147.34123l811.2126 0l0 294.77167l-811.2126 0z" fill-rule="evenodd"/><path stroke="#88e396" stroke-width="4.677165354330708" stroke-miterlimit="8.0" stroke-linecap="butt" d="m74.59641 147.34123l811.2126 0l0 294.77167l-811.2126 0z" fill-rule="evenodd"/><path fill="#88e396" d="m75.45996 143.9231l39.540825 -95.086624l202.05222 0l39.540802 95.086624z" fill-rule="evenodd"/><path stroke="#88e396" stroke-width="4.677165354330708" stroke-miterlimit="8.0" stroke-linecap="butt" d="m75.45996 143.9231l39.540825 -95.086624l202.05222 0l39.540802 95.086624z" fill-rule="evenodd"/><path fill="#88e396" d="m603.5916 143.9231l39.540833 -95.086624l202.05219 0l39.540833 95.086624z" fill-rule="evenodd"/><path stroke="#88e396" stroke-width="4.677165354330708" stroke-miterlimit="8.0" stroke-linecap="butt" d="m603.5916 143.9231l39.540833 -95.086624l202.05219 0l39.540833 95.086624z" fill-rule="evenodd"/><path fill="#fff7a4" d="m649.44104 277.00455l-46.41693 111.62204l-246.15833 0l-46.4169 -111.62204z" fill-rule="evenodd"/><path stroke="#fff7a4" stroke-width="4.677165354330708" stroke-miterlimit="8.0" stroke-linecap="butt" d="m649.44104 277.00455l-46.41693 111.62204l-246.15833 0l-46.4169 -111.62204z" fill-rule="evenodd"/><path fill="#fff7a4" d="m146.76317 120.09634l135.05513 0l0 135.05511l-135.05513 0z" fill-rule="evenodd"/><path stroke="#fff7a4" stroke-width="4.677165354330708" stroke-miterlimit="8.0" stroke-linecap="butt" d="m146.76317 120.09634l135.05513 0l0 135.05511l-135.05513 0z" fill-rule="evenodd"/><path fill="#fff7a4" d="m677.6626 120.090126l135.05511 0l0 135.05511l-135.05511 0z" fill-rule="evenodd"/><path stroke="#fff7a4" stroke-width="4.677165354330708" stroke-miterlimit="8.0" stroke-linecap="butt" d="m677.6626 120.090126l135.05511 0l0 135.05511l-135.05511 0z" fill-rule="evenodd"/><path fill="#88e396" d="m74.160065 442.70773l-56.503937 -23.496613l0 -134.77057l56.503937 -23.496613z" fill-rule="evenodd"/><path stroke="#88e396" stroke-width="4.677165354330708" stroke-miterlimit="8.0" stroke-linecap="butt" d="m74.160065 442.70773l-56.503937 -23.496613l0 -134.77057l56.503937 -23.496613z" fill-rule="evenodd"/><path fill="#88e396" d="m889.46185 442.84943l56.503906 -23.496613l0 -134.92807l-56.503906 -23.496582z" fill-rule="evenodd"/><path stroke="#88e396" stroke-width="4.677165354330708" stroke-miterlimit="8.0" stroke-linecap="butt" d="m889.46185 442.84943l56.503906 -23.496613l0 -134.92807l-56.503906 -23.496582z" fill-rule="evenodd"/><path fill="#88e396" d="m78.41937 443.36157l49.40924 67.77951l708.58307 0l49.40924 -67.77951z" fill-rule="evenodd"/><path stroke="#88e396" stroke-width="4.677165354330708" stroke-miterlimit="8.0" stroke-linecap="butt" d="m78.41937 443.36157l49.40924 67.77951l708.58307 0l49.40924 -67.77951z" fill-rule="evenodd"/><path fill="#88e396" d="m77.929016 563.99506l46.921143 -52.787415l710.7247 0l46.921143 52.787415z" fill-rule="evenodd"/><path stroke="#88e396" stroke-width="4.677165354330708" stroke-miterlimit="8.0" stroke-linecap="butt" d="m77.929016 563.99506l46.921143 -52.787415l710.7247 0l46.921143 52.787415z" fill-rule="evenodd"/><path fill="#fff7a4" d="m259.42026 667.97784l220.50348 -105.278015l220.50345 105.278015l-84.22479 170.34332l-272.5573 0z" fill-rule="evenodd"/><path stroke="#fff7a4" stroke-width="4.244094488188976" stroke-miterlimit="8.0" stroke-linecap="butt" d="m259.42026 667.97784l220.50348 -105.278015l220.50345 105.278015l-84.22479 170.34332l-272.5573 0z" fill-rule="evenodd"/><path fill="#fff7a4" d="m802.98804 838.3198l-99.59155 -166.89764l-85.069824 166.89764z" fill-rule="evenodd"/><path stroke="#fff7a4" stroke-width="4.244094488188976" stroke-miterlimit="8.0" stroke-linecap="butt" d="m802.98804 838.3198l-99.59155 -166.89764l-85.069824 166.89764z" fill-rule="evenodd"/><path fill="#fff7a4" d="m156.88506 838.3198l99.5916 -166.89764l85.069824 166.89764z" fill-rule="evenodd"/><path stroke="#fff7a4" stroke-width="4.244094488188976" stroke-miterlimit="8.0" stroke-linecap="butt" d="m156.88506 838.3198l99.5916 -166.89764l85.069824 166.89764z" fill-rule="evenodd"/><path fill="#58cf78" d="m826.0037 905.2062l58.9917 -95.08661l73.13428 0l-58.99176 95.08661z" fill-rule="evenodd"/><path stroke="#58cf78" stroke-width="4.677165354330708" stroke-miterlimit="8.0" stroke-linecap="butt" d="m826.0037 905.2062l58.9917 -95.08661l73.13428 0l-58.99176 95.08661z" fill-rule="evenodd"/><path fill="#88e396" d="m74.5958 783.6319l82.11024 0l0 146.07874l-82.11024 0z" fill-rule="evenodd"/><path stroke="#88e396" stroke-width="4.244094488188976" stroke-miterlimit="8.0" stroke-linecap="butt" d="m74.5958 783.6319l82.11024 0l0 146.07874l-82.11024 0z" fill-rule="evenodd"/><path fill="#88e396" d="m804.146 783.6319l82.11023 0l0 146.07874l-82.11023 0z" fill-rule="evenodd"/><path stroke="#88e396" stroke-width="4.244094488188976" stroke-miterlimit="8.0" stroke-linecap="butt" d="m804.146 783.6319l82.11023 0l0 146.07874l-82.11023 0z" fill-rule="evenodd"/></g></svg>