<svg version="1.1" viewBox="0.0 0.0 960.0 960.0" fill="none" stroke="none" stroke-linecap="square" stroke-miterlimit="10" xmlns:xlink="http://www.w3.org/1999/xlink" xmlns="http://www.w3.org/2000/svg"><clipPath id="g39733962770_0_6.0"><path d="m0 0l960.0 0l0 960.0l-960.0 0l0 -960.0z" clip-rule="nonzero"/></clipPath><g clip-path="url(#g39733962770_0_6.0)"><path fill="#000000" fill-opacity="0.0" d="m0 0l960.0 0l0 960.0l-960.0 0z" fill-rule="evenodd"/><path fill="#87e395" d="m121.67499 -10.247948l40.755524 -67.02799l76.21649 -18.577927l67.027985 40.755524l18.577942 76.216484l-40.755554 67.02799l-76.21646 18.577927l-67.028 -40.75553z" fill-rule="evenodd"/><path stroke="#87e395" stroke-width="3.832020997375328" stroke-linejoin="round" stroke-linecap="butt" d="m121.67499 -10.247948l40.755524 -67.02799l76.21649 -18.577927l67.027985 40.755524l18.577942 76.216484l-40.755554 67.02799l-76.21646 18.577927l-67.028 -40.75553z" fill-rule="evenodd"/><path fill="#87e395" d="m-18.098574 -36.89953l48.864197 -61.35469l77.93859 -8.832344l61.354683 48.864197l8.832352 77.93859l-48.864197 61.35469l-77.9386 8.832344l-61.35469 -48.864197z" fill-rule="evenodd"/><path stroke="#87e395" stroke-width="3.832020997375328" stroke-linejoin="round" stroke-linecap="butt" d="m-18.098574 -36.89953l48.864197 -61.35469l77.93859 -8.832344l61.354683 48.864197l8.832352 77.93859l-48.864197 61.35469l-77.9386 8.832344l-61.35469 -48.864197z" fill-rule="evenodd"/><path fill="#87e395" d="m266.4429 35.078255l35.912476 -35.912464l50.789246 0l35.912476 35.912464l0 50.789246l-35.912476 35.91246l-50.789246 0l-35.912476 -35.91246z" fill-rule="evenodd"/><path stroke="#87e395" stroke-width="3.832020997375328" stroke-linejoin="round" stroke-linecap="butt" d="m266.4429 35.078255l35.912476 -35.912464l50.789246 0l35.912476 35.912464l0 50.789246l-35.912476 35.91246l-50.789246 0l-35.912476 -35.91246z" fill-rule="evenodd"/><path fill="#b05f81" d="m713.5839 90.76934l71.480286 -117.56693l12.519714 7.015749l-71.48035 117.56693z" fill-rule="evenodd"/><path stroke="#b05f81" stroke-width="1.916010498687664" stroke-linejoin="round" stroke-linecap="butt" d="m713.5839 90.76934l71.480286 -117.56693l12.519714 7.015749l-71.48035 117.56693z" fill-rule="evenodd"/><path fill="#b05f81" d="m741.4185 146.53052l-27.5354 -54.15748l12.259827 -7.5118103l27.535461 54.15748z" fill-rule="evenodd"/><path stroke="#b05f81" stroke-width="1.916010498687664" stroke-linejoin="round" stroke-linecap="butt" d="m741.4185 146.53052l-27.5354 -54.15748l12.259827 -7.5118103l27.535461 54.15748z" fill-rule="evenodd"/><path fill="#b05f81" d="m713.3687 241.73825l26.944885 -104.69292l14.031494 2.9291382l-26.944885 104.6929z" fill-rule="evenodd"/><path stroke="#b05f81" stroke-width="1.916010498687664" stroke-linejoin="round" stroke-linecap="butt" d="m713.3687 241.73825l26.944885 -104.69292l14.031494 2.9291382l-26.944885 104.6929z" fill-rule="evenodd"/><path fill="#b05f81" d="m436.81952 190.83662l-16.653564 -211.8189l14.291351 -1.4409447l16.653534 211.8189z" fill-rule="evenodd"/><path stroke="#b05f81" stroke-width="1.916010498687664" stroke-linejoin="round" stroke-linecap="butt" d="m436.81952 190.83662l-16.653564 -211.8189l14.291351 -1.4409447l16.653534 211.8189z" fill-rule="evenodd"/><path fill="#b05f81" d="m416.5911 270.73788l20.897644 -84.43309l14.125977 2.6692963l-20.897644 84.433075z" fill-rule="evenodd"/><path stroke="#b05f81" stroke-width="1.916010498687664" stroke-linejoin="round" stroke-linecap="butt" d="m416.5911 270.73788l20.897644 -84.43309l14.125977 2.6692963l-20.897644 84.433075z" fill-rule="evenodd"/><path fill="#b05f81" d="m452.76627 350.81357l-35.590576 -79.37009l12.75592 -6.6141663l35.590546 79.37009z" fill-rule="evenodd"/><path stroke="#b05f81" stroke-width="1.916010498687664" stroke-linejoin="round" stroke-linecap="butt" d="m452.76627 350.81357l-35.590576 -79.37009l12.75592 -6.6141663l35.590546 79.37009z" fill-rule="evenodd"/><path fill="#b05f81" d="m321.33676 116.30173l-8.388153 -137.37871l14.3020935 -1.3577957l8.388153 137.37871z" fill-rule="evenodd"/><path stroke="#b05f81" stroke-width="1.916010498687664" stroke-linejoin="round" stroke-linecap="butt" d="m321.33676 116.30173l-8.388153 -137.37871l14.3020935 -1.3577957l8.388153 137.37871z" fill-rule="evenodd"/><path fill="#b05f81" d="m294.46167 193.2604l27.261505 -82.931114l13.894775 3.756569l-27.261505 82.93112z" fill-rule="evenodd"/><path stroke="#b05f81" stroke-width="1.916010498687664" stroke-linejoin="round" stroke-linecap="butt" d="m294.46167 193.2604l27.261505 -82.931114l13.894775 3.756569l-27.261505 82.93112z" fill-rule="evenodd"/><path fill="#b05f81" d="m296.80133 245.01147l-2.428955 -51.596207l14.256866 -1.9914398l2.4289246 51.596222z" fill-rule="evenodd"/><path stroke="#b05f81" stroke-width="1.916010498687664" stroke-linejoin="round" stroke-linecap="butt" d="m296.80133 245.01147l-2.428955 -51.596207l14.256866 -1.9914398l2.4289246 51.596222z" fill-rule="evenodd"/><path fill="#b05f81" d="m266.4358 275.43964l33.326324 -39.496765l11.812836 8.237289l-33.326355 39.49675z" fill-rule="evenodd"/><path stroke="#b05f81" stroke-width="1.916010498687664" stroke-linejoin="round" stroke-linecap="butt" d="m266.4358 275.43964l33.326324 -39.496765l11.812836 8.237289l-33.326355 39.49675z" fill-rule="evenodd"/><path fill="#b05f81" d="m138.83371 86.69191l58.393707 -124.59843l13.228348 5.6692924l-58.393707 124.59842z" fill-rule="evenodd"/><path stroke="#b05f81" stroke-width="1.916010498687664" stroke-linejoin="round" stroke-linecap="butt" d="m138.83371 86.69191l58.393707 -124.59843l13.228348 5.6692924l-58.393707 124.59842z" fill-rule="evenodd"/><path fill="#b05f81" d="m146.59282 175.08627l-7.0944977 -87.00787l14.244095 -1.9370117l7.0944977 87.00787z" fill-rule="evenodd"/><path stroke="#b05f81" stroke-width="1.916010498687664" stroke-linejoin="round" stroke-linecap="butt" d="m146.59282 175.08627l-7.0944977 -87.00787l14.244095 -1.9370117l7.0944977 87.00787z" fill-rule="evenodd"/><path fill="#87e395" d="m351.12164 -29.096943l55.44153 -32.397785l62.113434 16.294827l32.397766 55.441544l-16.2948 62.113434l-55.44156 32.39778l-62.113434 -16.294823l-32.397766 -55.441544z" fill-rule="evenodd"/><path stroke="#87e395" stroke-width="3.832020997375328" stroke-linejoin="round" stroke-linecap="butt" d="m351.12164 -29.096943l55.44153 -32.397785l62.113434 16.294827l32.397766 55.441544l-16.2948 62.113434l-55.44156 32.39778l-62.113434 -16.294823l-32.397766 -55.441544z" fill-rule="evenodd"/><path fill="#87e395" d="m466.00494 44.412933l18.108429 -61.594536l56.360016 -30.750126l61.594543 18.108442l30.750122 56.360012l-18.10846 61.594536l-56.359985 30.750122l-61.594543 -18.108437z" fill-rule="evenodd"/><path stroke="#87e395" stroke-width="3.832020997375328" stroke-linejoin="round" stroke-linecap="butt" d="m466.00494 44.412933l18.108429 -61.594536l56.360016 -30.750126l61.594543 18.108442l30.750122 56.360012l-18.10846 61.594536l-56.359985 30.750122l-61.594543 -18.108437z" fill-rule="evenodd"/><path fill="#87e395" d="m613.18555 -34.037704l51.188843 -38.88288l63.692078 8.701881l38.882874 51.188873l-8.701904 63.69203l-51.188904 38.88288l-63.692017 -8.701881l-38.882874 -51.188873z" fill-rule="evenodd"/><path stroke="#87e395" stroke-width="3.832020997375328" stroke-linejoin="round" stroke-linecap="butt" d="m613.18555 -34.037704l51.188843 -38.88288l63.692078 8.701881l38.882874 51.188873l-8.701904 63.69203l-51.188904 38.88288l-63.692017 -8.701881l-38.882874 -51.188873z" fill-rule="evenodd"/><path fill="#00d26e" d="m155.5935 3.1682398l26.124878 -26.124865l36.947113 0l26.124863 26.124865l0 36.94712l-26.124863 26.124866l-36.947113 0l-26.124878 -26.124866z" fill-rule="evenodd"/><path stroke="#00d26e" stroke-width="3.832020997375328" stroke-linejoin="round" stroke-linecap="butt" d="m155.5935 3.1682398l26.124878 -26.124865l36.947113 0l26.124863 26.124865l0 36.94712l-26.124863 26.124866l-36.947113 0l-26.124878 -26.124866z" fill-rule="evenodd"/><path fill="#00d26e" d="m85.86128 25.290655l26.12487 -26.124866l36.94712 0l26.124863 26.124866l0 36.94712l-26.124863 26.124866l-36.94712 0l-26.12487 -26.124866z" fill-rule="evenodd"/><path stroke="#00d26e" stroke-width="3.832020997375328" stroke-linejoin="round" stroke-linecap="butt" d="m85.86128 25.290655l26.12487 -26.124866l36.94712 0l26.124863 26.124866l0 36.94712l-26.124863 26.124866l-36.94712 0l-26.12487 -26.124866z" fill-rule="evenodd"/><path fill="#00d26e" d="m359.79135 58.72321l26.124878 -26.124863l36.947113 0l26.124878 26.124863l0 36.947117l-26.124878 26.12487l-36.947113 0l-26.124878 -26.12487z" fill-rule="evenodd"/><path stroke="#00d26e" stroke-width="3.832020997375328" stroke-linejoin="round" stroke-linecap="butt" d="m359.79135 58.72321l26.124878 -26.124863l36.947113 0l26.124878 26.124863l0 36.947117l-26.124878 26.12487l-36.947113 0l-26.124878 -26.12487z" fill-rule="evenodd"/><path fill="#00d26e" d="m566.6043 42.00693l26.124878 -26.124865l36.947083 0l26.124878 26.124865l0 36.947124l-26.124878 26.124863l-36.947083 0l-26.124878 -26.124863z" fill-rule="evenodd"/><path stroke="#00d26e" stroke-width="3.832020997375328" stroke-linejoin="round" stroke-linecap="butt" d="m566.6043 42.00693l26.124878 -26.124865l36.947083 0l26.124878 26.124865l0 36.947124l-26.124878 26.124863l-36.947083 0l-26.124878 -26.124863z" fill-rule="evenodd"/><path fill="#87e395" d="m748.44293 -41.725967l47.065308 -82.2306l91.42847 -24.86625l82.23059 47.065353l24.866272 91.42847l-47.06537 82.23059l-91.42847 24.86625l-82.23059 -47.065346z" fill-rule="evenodd"/><path stroke="#87e395" stroke-width="3.832020997375328" stroke-linejoin="round" stroke-linecap="butt" d="m748.44293 -41.725967l47.065308 -82.2306l91.42847 -24.86625l82.23059 47.065353l24.866272 91.42847l-47.06537 82.23059l-91.42847 24.86625l-82.23059 -47.065346z" fill-rule="evenodd"/><path fill="#00d26e" d="m693.85834 17.018007l26.124817 -26.124865l36.947144 0l26.124878 26.124865l0 36.94712l-26.124878 26.12487l-36.947144 0l-26.124817 -26.12487z" fill-rule="evenodd"/><path stroke="#00d26e" stroke-width="3.832020997375328" stroke-linejoin="round" stroke-linecap="butt" d="m693.85834 17.018007l26.124817 -26.124865l36.947144 0l26.124878 26.124865l0 36.94712l-26.124878 26.12487l-36.947144 0l-26.124817 -26.12487z" fill-rule="evenodd"/><path fill="#00d26e" d="m758.4258 65.72856l26.124817 -26.12487l36.947144 0l26.124878 26.12487l0 36.947113l-26.124878 26.124863l-36.947144 0l-26.124817 -26.124863z" fill-rule="evenodd"/><path stroke="#00d26e" stroke-width="3.832020997375328" stroke-linejoin="round" stroke-linecap="butt" d="m758.4258 65.72856l26.124817 -26.12487l36.947144 0l26.124878 26.12487l0 36.947113l-26.124878 26.124863l-36.947144 0l-26.124817 -26.124863z" fill-rule="evenodd"/><path fill="#ee7899" d="m329.98233 254.75488l39.29193 13.699646l-11.891144 39.88211l-46.641052 10.948853l-16.9346 -33.115356z" fill-rule="evenodd"/><path stroke="#ee7899" stroke-width="1.8923884514435696" stroke-linejoin="round" stroke-linecap="butt" d="m329.98233 254.75488l39.29193 13.699646l-11.891144 39.88211l-46.641052 10.948853l-16.9346 -33.115356z" fill-rule="evenodd"/><path fill="#ee7899" d="m203.4602 332.9874l-23.753723 -34.190887l33.065826 -25.281586l44.189545 18.56601l-5.7552032 36.756012z" fill-rule="evenodd"/><path stroke="#ee7899" stroke-width="1.8923884514435696" stroke-linejoin="round" stroke-linecap="butt" d="m203.4602 332.9874l-23.753723 -34.190887l33.065826 -25.281586l44.189545 18.56601l-5.7552032 36.756012z" fill-rule="evenodd"/><path fill="#ee7899" d="m238.29512 247.77353l25.175797 -33.1586l34.266937 23.63823l-3.9976807 47.767838l-36.73764 5.883911z" fill-rule="evenodd"/><path stroke="#ee7899" stroke-width="1.8923884514435696" stroke-linejoin="round" stroke-linecap="butt" d="m238.29512 247.77353l25.175797 -33.1586l34.266937 23.63823l-3.9976807 47.767838l-36.73764 5.883911z" fill-rule="evenodd"/><path fill="#ee7899" d="m273.49664 392.52643l-39.85855 12.022339l-13.8124695 -39.274353l31.321991 -36.295227l33.1705 16.842651z" fill-rule="evenodd"/><path stroke="#ee7899" stroke-width="1.8923884514435696" stroke-linejoin="round" stroke-linecap="butt" d="m273.49664 392.52643l-39.85855 12.022339l-13.8124695 -39.274353l31.321991 -36.295227l33.1705 16.842651z" fill-rule="evenodd"/><path fill="#ee7899" d="m308.90805 386.85675l41.617798 -1.024231l0.8668213 -41.638855l-41.082092 -24.709991l-26.256927 26.367249z" fill-rule="evenodd"/><path stroke="#ee7899" stroke-width="1.8923884514435696" stroke-linejoin="round" stroke-linecap="butt" d="m308.90805 386.85675l41.617798 -1.024231l0.8668213 -41.638855l-41.082092 -24.709991l-26.256927 26.367249z" fill-rule="evenodd"/><path fill="#ff9bb6" d="m310.91873 319.32724l-26.437408 26.51773l-33.392105 -16.937866l5.799942 -36.98593l36.976654 -5.9206543z" fill-rule="evenodd"/><path stroke="#ff9bb6" stroke-width="1.8923884514435696" stroke-linejoin="round" stroke-linecap="butt" d="m310.91873 319.32724l-26.437408 26.51773l-33.392105 -16.937866l5.799942 -36.98593l36.976654 -5.9206543z" fill-rule="evenodd"/><path fill="#00d26e" d="m529.0408 372.29294l3.6955566 27.928406l-27.742218 4.971649l-20.841187 -24.855804l14.861633 -20.333344z" fill-rule="evenodd"/><path stroke="#00d26e" stroke-width="1.2808398950131235" stroke-linejoin="round" stroke-linecap="butt" d="m529.0408 372.29294l3.6955566 27.928406l-27.742218 4.971649l-20.841187 -24.855804l14.861633 -20.333344z" fill-rule="evenodd"/><path fill="#00d26e" d="m443.15808 319.66412l13.432953 -24.783356l25.369263 12.279785l2.2461243 32.37268l-23.98111 7.7276306z" fill-rule="evenodd"/><path stroke="#00d26e" stroke-width="1.2808398950131235" stroke-linejoin="round" stroke-linecap="butt" d="m443.15808 319.66412l13.432953 -24.783356l25.369263 12.279785l2.2461243 32.37268l-23.98111 7.7276306z" fill-rule="evenodd"/><path fill="#00d26e" d="m505.3078 314.74048l27.726868 5.108734l-3.8463745 27.921051l-30.104065 12.14743l-14.758942 -20.413544z" fill-rule="evenodd"/><path stroke="#00d26e" stroke-width="1.2808398950131235" stroke-linejoin="round" stroke-linecap="butt" d="m505.3078 314.74048l27.726868 5.108734l-3.8463745 27.921051l-30.104065 12.14743l-14.758942 -20.413544z" fill-rule="evenodd"/><path fill="#00d26e" d="m428.5083 380.15326l-19.422424 -20.428528l19.537933 -20.323883l31.497498 7.867676l-0.071380615 25.186401z" fill-rule="evenodd"/><path stroke="#00d26e" stroke-width="1.2808398950131235" stroke-linejoin="round" stroke-linecap="butt" d="m428.5083 380.15326l-19.422424 -20.428528l19.537933 -20.323883l31.497498 7.867676l-0.071380615 25.186401z" fill-rule="evenodd"/><path fill="#00d26e" d="m442.73337 399.8304l13.308258 24.845215l25.443298 -12.171326l2.4165955 -32.367523l-23.949799 -7.832855z" fill-rule="evenodd"/><path stroke="#00d26e" stroke-width="1.2808398950131235" stroke-linejoin="round" stroke-linecap="butt" d="m442.73337 399.8304l13.308258 24.845215l25.443298 -12.171326l2.4165955 -32.367523l-23.949799 -7.832855z" fill-rule="evenodd"/><path fill="#87e395" d="m484.18152 380.4567l-24.095795 -7.8960876l0.061401367 -25.349335l24.133728 -7.770691l14.854095 20.546814z" fill-rule="evenodd"/><path stroke="#87e395" stroke-width="1.2808398950131235" stroke-linejoin="round" stroke-linecap="butt" d="m484.18152 380.4567l-24.095795 -7.8960876l0.061401367 -25.349335l24.133728 -7.770691l14.854095 20.546814z" fill-rule="evenodd"/><path fill="#eae074" d="m208.12971 192.46219l3.6955566 27.928421l-27.742233 4.971634l-20.841202 -24.85579l14.861664 -20.333344z" fill-rule="evenodd"/><path stroke="#eae074" stroke-width="1.2808398950131235" stroke-linejoin="round" stroke-linecap="butt" d="m208.12971 192.46219l3.6955566 27.928421l-27.742233 4.971634l-20.841202 -24.85579l14.861664 -20.333344z" fill-rule="evenodd"/><path fill="#eae074" d="m122.24702 139.83337l13.432945 -24.783356l25.369263 12.279793l2.246109 32.37269l-23.98108 7.7276154z" fill-rule="evenodd"/><path stroke="#eae074" stroke-width="1.2808398950131235" stroke-linejoin="round" stroke-linecap="butt" d="m122.24702 139.83337l13.432945 -24.783356l25.369263 12.279793l2.246109 32.37269l-23.98108 7.7276154z" fill-rule="evenodd"/><path fill="#eae074" d="m184.39673 134.90974l27.726898 5.108734l-3.8463745 27.921051l-30.10408 12.14743l-14.758972 -20.413528z" fill-rule="evenodd"/><path stroke="#eae074" stroke-width="1.2808398950131235" stroke-linejoin="round" stroke-linecap="butt" d="m184.39673 134.90974l27.726898 5.108734l-3.8463745 27.921051l-30.10408 12.14743l-14.758972 -20.413528z" fill-rule="evenodd"/><path fill="#eae074" d="m107.59722 200.32251l-19.422417 -20.428528l19.537926 -20.323883l31.49752 7.867691l-0.071380615 25.186386z" fill-rule="evenodd"/><path stroke="#eae074" stroke-width="1.2808398950131235" stroke-linejoin="round" stroke-linecap="butt" d="m107.59722 200.32251l-19.422417 -20.428528l19.537926 -20.323883l31.49752 7.867691l-0.071380615 25.186386z" fill-rule="evenodd"/><path fill="#eae074" d="m121.822296 219.99968l13.308243 24.845215l25.443329 -12.171341l2.4165802 -32.367508l-23.949783 -7.8328705z" fill-rule="evenodd"/><path stroke="#eae074" stroke-width="1.2808398950131235" stroke-linejoin="round" stroke-linecap="butt" d="m121.822296 219.99968l13.308243 24.845215l25.443329 -12.171341l2.4165802 -32.367508l-23.949783 -7.8328705z" fill-rule="evenodd"/><path fill="#fff6a7" d="m163.27046 200.62596l-24.09581 -7.8960876l0.06138611 -25.34935l24.133743 -7.7706757l14.85408 20.546814z" fill-rule="evenodd"/><path stroke="#fff6a7" stroke-width="1.2808398950131235" stroke-linejoin="round" stroke-linecap="butt" d="m163.27046 200.62596l-24.09581 -7.8960876l0.06138611 -25.34935l24.133743 -7.7706757l14.85408 20.546814z" fill-rule="evenodd"/><path fill="#7b3cbe" d="m647.04065 250.39337l-8.789368 -37.85373l37.417297 -10.511551l31.91455 31.357224l-17.693054 29.891388z" fill-rule="evenodd"/><path stroke="#7b3cbe" stroke-width="1.7716535433070866" stroke-linejoin="round" stroke-linecap="butt" d="m647.04065 250.39337l-8.789368 -37.85373l37.417297 -10.511551l31.91455 31.357224l-17.693054 29.891388z" fill-rule="evenodd"/><path fill="#7b3cbe" d="m771.92725 311.2409l-15.1397705 35.81125l-36.456055 -13.489288l-7.3913574 -44.1481l31.888 -13.795746z" fill-rule="evenodd"/><path stroke="#7b3cbe" stroke-width="1.7716535433070866" stroke-linejoin="round" stroke-linecap="butt" d="m771.92725 311.2409l-15.1397705 35.81125l-36.456055 -13.489288l-7.3913574 -44.1481l31.888 -13.795746z" fill-rule="evenodd"/><path fill="#7b3cbe" d="m687.2759 326.25775l-38.737793 -3.3304749l1.5636597 -38.84558l39.704163 -20.67746l22.974915 26.066254z" fill-rule="evenodd"/><path stroke="#7b3cbe" stroke-width="1.7716535433070866" stroke-linejoin="round" stroke-linecap="butt" d="m687.2759 326.25775l-38.737793 -3.3304749l1.5636597 -38.84558l39.704163 -20.67746l22.974915 26.066254z" fill-rule="evenodd"/><path fill="#7b3cbe" d="m783.98535 226.24522l29.37793 25.467285l-24.112976 30.49965l-44.280518 -6.617462l-3.2539673 -34.589478z" fill-rule="evenodd"/><path stroke="#7b3cbe" stroke-width="1.7716535433070866" stroke-linejoin="round" stroke-linecap="butt" d="m783.98535 226.24522l29.37793 25.467285l-24.112976 30.49965l-44.280518 -6.617462l-3.2539673 -34.589478z" fill-rule="evenodd"/><path fill="#7b3cbe" d="m761.84125 201.11905l-21.573364 -32.34349l-33.30365 20.091064l0.9906006 44.760452l33.915894 7.572418z" fill-rule="evenodd"/><path stroke="#7b3cbe" stroke-width="1.7716535433070866" stroke-linejoin="round" stroke-linecap="butt" d="m761.84125 201.11905l-21.573364 -32.34349l-33.30365 20.091064l0.9906006 44.760452l33.915894 7.572418z" fill-rule="evenodd"/><path fill="#ad87e3" d="m707.52795 233.22504l34.124695 7.6398163l3.2893677 34.811874l-32.091797 13.875122l-23.123169 -26.236572z" fill-rule="evenodd"/><path stroke="#ad87e3" stroke-width="1.7716535433070866" stroke-linejoin="round" stroke-linecap="butt" d="m707.52795 233.22504l34.124695 7.6398163l3.2893677 34.811874l-32.091797 13.875122l-23.123169 -26.236572z" fill-rule="evenodd"/><path fill="#b05f81" d="m509.48383 86.1367l-9.125977 -137.29921l14.291321 -1.4409447l9.125977 137.29921z" fill-rule="evenodd"/><path stroke="#b05f81" stroke-width="1.916010498687664" stroke-linejoin="round" stroke-linecap="butt" d="m509.48383 86.1367l-9.125977 -137.29921l14.291321 -1.4409447l9.125977 137.29921z" fill-rule="evenodd"/><path fill="#b05f81" d="m536.6773 139.61226l-27.5354 -54.15748l12.259827 -7.5118103l27.535461 54.15748z" fill-rule="evenodd"/><path stroke="#b05f81" stroke-width="1.916010498687664" stroke-linejoin="round" stroke-linecap="butt" d="m536.6773 139.61226l-27.5354 -54.15748l12.259827 -7.5118103l27.535461 54.15748z" fill-rule="evenodd"/><path fill="#b05f81" d="m530.30396 193.24278l4.795288 -60.59842l14.385864 0l-4.795288 60.59842z" fill-rule="evenodd"/><path stroke="#b05f81" stroke-width="1.916010498687664" stroke-linejoin="round" stroke-linecap="butt" d="m530.30396 193.24278l4.795288 -60.59842l14.385864 0l-4.795288 60.59842z" fill-rule="evenodd"/><path fill="#01a582" d="m590.6842 190.01093l16.72528 27.9917l-27.2016 17.989395l-33.536743 -16.873642l6.4746704 -28.417877z" fill-rule="evenodd"/><path stroke="#01a582" stroke-width="1.4829396325459316" stroke-linejoin="round" stroke-linecap="butt" d="m590.6842 190.01093l16.72528 27.9917l-27.2016 17.989395l-33.536743 -16.873642l6.4746704 -28.417877z" fill-rule="evenodd"/><path fill="#01a582" d="m475.3051 173.40558l2.917328 -32.493317l32.58545 1.4333038l17.221588 33.379166l-21.941895 19.196136z" fill-rule="evenodd"/><path stroke="#01a582" stroke-width="1.4829396325459316" stroke-linejoin="round" stroke-linecap="butt" d="m475.3051 173.40558l2.917328 -32.493317l32.58545 1.4333038l17.221588 33.379166l-21.941895 19.196136z" fill-rule="evenodd"/><path fill="#01a582" d="m539.09125 139.70947l31.804626 -7.2682953l8.707581 31.437881l-26.423035 26.697968l-25.037903 -14.937622z" fill-rule="evenodd"/><path stroke="#01a582" stroke-width="1.4829396325459316" stroke-linejoin="round" stroke-linecap="butt" d="m539.09125 139.70947l31.804626 -7.2682953l8.707581 31.437881l-26.423035 26.697968l-25.037903 -14.937622z" fill-rule="evenodd"/><path fill="#01a582" d="m487.457 244.40665l-30.000336 -12.817841l11.448212 -30.549408l37.075714 -6.062744l11.46582 26.802444z" fill-rule="evenodd"/><path stroke="#01a582" stroke-width="1.4829396325459316" stroke-linejoin="round" stroke-linecap="butt" d="m487.457 244.40665l-30.000336 -12.817841l11.448212 -30.549408l37.075714 -6.062744l11.46582 26.802444z" fill-rule="evenodd"/><path fill="#01a582" d="m511.59012 258.80612l25.52713 20.312286l21.459412 -24.588867l-12.264526 -35.50905l-29.039246 2.6430817z" fill-rule="evenodd"/><path stroke="#01a582" stroke-width="1.4829396325459316" stroke-linejoin="round" stroke-linecap="butt" d="m511.59012 258.80612l25.52713 20.312286l21.459412 -24.588867l-12.264526 -35.50905l-29.039246 2.6430817z" fill-rule="evenodd"/><path fill="#87e3de" d="m546.7563 219.23228l-29.223389 2.6427612l-11.551147 -26.97107l22.084412 -19.311798l25.200073 15.035721z" fill-rule="evenodd"/><path stroke="#87e3de" stroke-width="1.4829396325459316" stroke-linejoin="round" stroke-linecap="butt" d="m546.7563 219.23228l-29.223389 2.6427612l-11.551147 -26.97107l22.084412 -19.311798l25.200073 15.035721z" fill-rule="evenodd"/></g></svg>