<svg version="1.1" viewBox="0.0 0.0 960.0 960.0" fill="none" stroke="none" stroke-linecap="square" stroke-miterlimit="10" xmlns:xlink="http://www.w3.org/1999/xlink" xmlns="http://www.w3.org/2000/svg"><clipPath id="g3e556427396_1_0.0"><path d="m0 0l960.0 0l0 960.0l-960.0 0l0 -960.0z" clip-rule="nonzero"/></clipPath><g clip-path="url(#g3e556427396_1_0.0)"><path fill="#000000" fill-opacity="0.0" d="m0 0l960.0 0l0 960.0l-960.0 0z" fill-rule="evenodd"/><path fill="#ffffff" d="m342.1754 271.16232l137.82458 137.82455l137.82458 -137.82455l87.028015 87.028015l-137.82458 137.82455l137.82458 137.82458l-87.028015 87.028015l-137.82458 -137.82458l-137.82458 137.82458l-87.028 -87.028015l137.82457 -137.82458l-137.82457 -137.82455z" fill-rule="evenodd"/><path fill="#ffffff" d="m223.54735 434.48077l194.91734 0l0 -194.91734l123.078705 0l0 194.91734l194.91736 0l0 123.078735l-194.91736 0l0 194.9173l-123.078705 0l0 -194.9173l-194.91734 0z" fill-rule="evenodd"/></g></svg>